# Blender 3.4.1
# www.blender.org
mtllib Chest LS.mtl
o CHEST
v 0.000000 1.000000 -1.000000
v 0.000000 1.000000 1.000000
v 0.195090 0.980785 -1.000000
v 0.195090 0.980785 1.000000
v 0.382683 0.923880 -1.000000
v 0.382683 0.923879 1.000000
v 0.555570 0.831470 -1.000000
v 0.555570 0.831470 1.000000
v 0.707107 0.707107 -1.000000
v 0.707107 0.707107 1.000000
v 0.831470 0.555570 -1.000000
v 0.831470 0.555570 1.000000
v 0.923880 0.382683 -1.000000
v 0.923880 0.382683 1.000000
v 0.980785 0.195090 -1.000000
v 0.980785 0.195090 1.000000
v 1.000000 0.000000 -1.000000
v 1.000000 -0.000000 1.000000
v -1.000000 0.000000 -1.000000
v -1.000000 -0.000000 1.000000
v -0.980785 0.195090 -1.000000
v -0.980785 0.195090 1.000000
v -0.923880 0.382683 -1.000000
v -0.923880 0.382683 1.000000
v -0.831470 0.555570 -1.000000
v -0.831470 0.555570 1.000000
v -0.707107 0.707107 -1.000000
v -0.707107 0.707107 1.000000
v -0.555570 0.831470 -1.000000
v -0.555570 0.831470 1.000000
v -0.382683 0.923880 -1.000000
v -0.382683 0.923879 1.000000
v -0.195090 0.980785 -1.000000
v -0.195090 0.980785 1.000000
v 0.972841 -1.133855 -1.025107
v 0.972841 -1.133855 0.974893
v -1.027159 -1.133855 -1.025107
v -1.027159 -1.133855 0.974893
vn 0.0980 0.9952 -0.0000
vn 0.2903 0.9569 -0.0000
vn 0.4714 0.8819 -0.0000
vn 0.6344 0.7730 -0.0000
vn 0.7730 0.6344 -0.0000
vn 0.8819 0.4714 -0.0000
vn 0.9569 0.2903 -0.0000
vn 0.9952 0.0980 -0.0000
vn -0.9952 0.0980 -0.0000
vn -0.9569 0.2903 -0.0000
vn -0.8819 0.4714 -0.0000
vn -0.7730 0.6344 -0.0000
vn -0.6344 0.7730 -0.0000
vn -0.4714 0.8819 -0.0000
vn -0.2903 0.9569 -0.0000
vn -0.0980 0.9952 -0.0000
vn -0.9997 0.0239 -0.0000
vn 0.9997 -0.0239 -0.0000
vn -0.0000 -1.0000 -0.0000
vn -0.0000 0.0221 -0.9998
vn -0.0000 -0.0221 0.9998
vn -0.0000 -0.0000 -1.0000
vn -0.0000 -0.0000 1.0000
vt 1.000000 0.500000
vt 0.000000 0.500000
vt 1.000000 1.000000
vt 0.000000 1.000000
vt 0.968750 0.500000
vt 0.968750 1.000000
vt 0.994141 1.003906
vt 0.937500 0.500000
vt 0.994141 0.498047
vt 0.937500 1.000000
vt 0.998047 0.996094
vt 0.996094 0.003906
vt 0.906250 0.500000
vt 0.998047 0.730469
vt 0.906250 1.000000
vt 0.978516 1.000000
vt 0.988281 0.017578
vt 0.875000 0.500000
vt 0.937500 0.886719
vt 0.875000 1.000000
vt 1.003906 0.677734
vt 0.992188 0.679688
vt 0.843750 0.500000
vt 0.927734 0.947266
vt 0.843750 1.000000
vt 0.996094 0.515625
vt 0.990234 0.994141
vt 0.812500 0.500000
vt 0.914062 0.939453
vt 0.812500 1.000000
vt 1.003906 0.673828
vt 1.001953 1.000000
vt 0.781250 0.500000
vt 0.998047 0.484375
vt 0.728516 0.839844
vt 0.781250 1.000000
vt 0.998047 0.496094
vt 1.000000 0.832031
vt 0.750000 0.500000
vt 0.003906 1.000000
vt 0.996094 -0.003906
vt 0.976562 0.822266
vt 0.750000 1.000000
vt 1.000000 1.003906
vt 0.996094 1.007812
vt 0.994141 0.830078
vt 0.250000 0.500000
vt 0.999302 0.995009
vt 0.000000 0.003906
vt 0.128906 0.751953
vt 0.250000 1.000000
vt 0.001953 0.996094
vt 0.000000 0.996094
vt -0.003906 0.833984
vt 0.218750 0.500000
vt 0.041016 0.498047
vt 0.263672 0.775391
vt 0.218750 1.000000
vt -0.001953 0.503906
vt 0.001953 0.833984
vt 0.187500 0.500000
vt 0.218750 0.771484
vt 0.187500 1.000000
vt -0.001953 0.669922
vt 0.000000 0.996094
vt 0.156250 0.500000
vt 0.175781 0.816406
vt 0.156250 1.000000
vt 0.005859 0.513672
vt 0.001953 0.996094
vt 0.125000 0.500000
vt 0.875000 0.910156
vt 0.125000 1.000000
vt 0.001953 0.683594
vt -0.001953 0.667969
vt 0.093750 0.500000
vt 0.167969 0.980469
vt 0.093750 1.000000
vt -0.005859 0.992188
vt -0.023437 0.005859
vt 0.062500 0.500000
vt 0.042969 0.732422
vt 0.062500 1.000000
vt 0.007813 1.000000
vt 0.488281 0.029297
vt 0.031250 0.500000
vt 0.015625 0.621094
vt 0.031250 1.000000
vt 0.017578 0.007813
vt -0.003906 -0.005859
vt 0.750000 0.500000
vt 1.001953 1.000000
vt 0.998047 0.001953
vt 0.750000 1.000000
vt 0.998047 -0.001953
vt 1.000000 -0.007812
vt 0.250000 0.500000
vt 0.005859 0.996094
vt 0.001953 -0.005859
vt 0.250000 1.000000
vt 0.003906 0.003906
s 0
usemtl Material.001
f 1/1/1 2/3/1 4/6/1 3/5/1
f 3/5/2 4/6/2 6/10/2 5/8/2
f 5/8/3 6/10/3 8/15/3 7/13/3
f 7/13/4 8/15/4 10/20/4 9/18/4
f 9/18/5 10/20/5 12/25/5 11/23/5
f 11/23/6 12/25/6 14/30/6 13/28/6
f 13/28/7 14/30/7 16/36/7 15/33/7
f 15/33/8 16/36/8 18/43/8 17/39/8
f 19/47/9 20/51/9 22/58/9 21/55/9
f 21/55/10 22/58/10 24/63/10 23/61/10
f 23/61/11 24/63/11 26/68/11 25/66/11
f 25/66/12 26/68/12 28/73/12 27/71/12
f 27/71/13 28/73/13 30/78/13 29/76/13
f 29/76/14 30/78/14 32/83/14 31/81/14
f 31/81/15 32/83/15 34/88/15 33/86/15
f 33/86/16 34/88/16 2/4/16 1/2/16
f 20/52/17 19/48/17 37/96/17 38/99/17
f 17/40/18 18/44/18 36/93/18 35/90/18
f 35/91/19 36/94/19 38/100/19 37/97/19
f 19/49/20 17/41/20 35/92/20 37/98/20
f 38/101/21 36/95/21 18/45/21 20/53/21
f 15/34/22 17/42/22 19/50/22 21/56/22
f 13/28/22 15/35/22 21/57/22 23/61/22
f 18/46/23 16/37/23 22/59/23 20/54/23
f 16/38/23 14/31/23 24/64/23 22/60/23
f 14/32/23 12/26/23 26/69/23 24/65/23
f 11/23/22 13/29/22 23/62/22 25/66/22
f 12/27/23 10/21/23 28/74/23 26/70/23
f 10/22/23 8/16/23 30/79/23 28/75/23
f 9/18/22 11/24/22 25/67/22 27/71/22
f 8/17/23 6/11/23 32/84/23 30/80/23
f 4/7/23 2/4/23 34/89/23 32/85/23 6/12/23
f 1/2/22 3/5/22 5/9/22 7/14/22 9/19/22 27/72/22 29/77/22 31/82/22 33/87/22
