# Blender 3.4.1
# www.blender.org
mtllib coin.mtl
o COIN
v 6.758491 -0.375456 2.459849
v 5.509591 -0.375457 4.623049
v 3.596090 -0.375457 6.228649
v 1.248891 -0.375457 7.082949
v -1.248909 -0.375457 7.082949
v -3.596109 -0.375457 6.228649
v -5.509609 -0.375457 4.623049
v -6.758509 -0.375456 2.459849
v -7.192209 -0.375456 -0.000051
v -6.758509 -0.375455 -2.459950
v -5.509609 -0.375455 -4.623051
v -3.596109 -0.375455 -6.228651
v -1.248909 -0.375455 -7.082951
v 1.248891 -0.375455 -7.082951
v 3.596090 -0.375455 -6.228651
v 5.509591 -0.375455 -4.623051
v 6.758491 -0.375455 -2.459950
v 7.192291 -0.375456 -0.000051
v 6.758491 -0.225256 -2.459950
v 7.192291 -0.225256 -0.000051
v 5.509591 -0.225255 -4.623051
v 3.596090 -0.225255 -6.228651
v 1.248891 -0.225255 -7.082951
v -1.248909 -0.225255 -7.082951
v -3.596109 -0.225255 -6.228651
v -5.509609 -0.225255 -4.623051
v -6.758509 -0.225256 -2.459950
v -7.192209 -0.225256 -0.000051
v -6.758509 -0.225256 2.459849
v -5.509609 -0.225257 4.623049
v -3.596109 -0.225257 6.228649
v -1.248909 -0.225257 7.082949
v 1.248891 -0.225257 7.082949
v 3.596090 -0.225257 6.228649
v 5.509591 -0.225257 4.623049
v 6.758491 -0.225256 2.459849
v 6.758491 -0.075056 -2.459950
v 7.192291 -0.075056 -0.000051
v 5.509591 -0.075055 -4.623051
v 3.596090 -0.075055 -6.228651
v 1.248891 -0.075055 -7.082951
v -1.248909 -0.075055 -7.082951
v -3.596109 -0.075055 -6.228651
v -5.509609 -0.075055 -4.623051
v -6.758509 -0.075056 -2.459950
v -7.192209 -0.075056 -0.000051
v -6.758509 -0.075056 2.459849
v -5.509609 -0.075057 4.623049
v -3.596109 -0.075057 6.228649
v -1.248909 -0.075057 7.082949
v 1.248891 -0.075057 7.082949
v 3.596090 -0.075057 6.228649
v 5.509591 -0.075057 4.623049
v 6.758491 -0.075056 2.459849
v 6.758491 0.075043 -2.459950
v 7.192291 0.075043 -0.000051
v 5.509591 0.075043 -4.623051
v 3.596090 0.075044 -6.228651
v 1.248891 0.075044 -7.082951
v -1.248909 0.075044 -7.082951
v -3.596109 0.075044 -6.228651
v -5.509609 0.075043 -4.623051
v -6.758509 0.075043 -2.459950
v -7.192209 0.075043 -0.000051
v -6.758509 0.075042 2.459849
v -5.509609 0.075042 4.623049
v -3.596109 0.075042 6.228649
v -1.248909 0.075042 7.082949
v 1.248891 0.075042 7.082949
v 3.596090 0.075042 6.228649
v 5.509591 0.075042 4.623049
v 6.758491 0.075042 2.459849
v 6.758491 0.225243 -2.459950
v 7.192291 0.225243 -0.000051
v 5.509591 0.225243 -4.623051
v 3.596090 0.225244 -6.228651
v 1.248891 0.225244 -7.082951
v -1.248909 0.225244 -7.082951
v -3.596109 0.225244 -6.228651
v -5.509609 0.225243 -4.623051
v -6.758509 0.225243 -2.459950
v -7.192209 0.225243 -0.000051
v -6.758509 0.225242 2.459849
v -5.509609 0.225242 4.623049
v -3.596109 0.225242 6.228649
v -1.248909 0.225241 7.082949
v 1.248891 0.225241 7.082949
v 3.596090 0.225242 6.228649
v 5.509591 0.225242 4.623049
v 6.758491 0.225242 2.459849
v 6.758491 0.375443 -2.459950
v 7.192291 0.375443 -0.000050
v 5.509591 0.375443 -4.623051
v 3.596090 0.375444 -6.228651
v 1.248891 0.375444 -7.082951
v -1.248909 0.375444 -7.082951
v -3.596109 0.375444 -6.228651
v -5.509609 0.375443 -4.623051
v -6.758509 0.375443 -2.459950
v -7.192209 0.375443 -0.000050
v -6.758509 0.375442 2.459849
v -5.509609 0.375442 4.623049
v -3.596109 0.375441 6.228649
v -1.248909 0.375441 7.082949
v 1.248891 0.375441 7.082949
v 3.596090 0.375441 6.228649
v 5.509591 0.375442 4.623049
v 6.758491 0.375442 2.459849
vn 0.6976 -0.6700 0.2539
vn 0.5687 -0.6700 0.4772
vn 0.3712 -0.6700 0.6429
vn 0.1289 -0.6700 0.7311
vn -0.1289 -0.6700 0.7311
vn -0.3712 -0.6700 0.6429
vn -0.5687 -0.6700 0.4772
vn -0.6976 -0.6700 0.2539
vn -0.7423 -0.6700 -0.0000
vn -0.6976 -0.6700 -0.2539
vn -0.5687 -0.6700 -0.4772
vn -0.3712 -0.6700 -0.6429
vn -0.1289 -0.6700 -0.7311
vn 0.1289 -0.6700 -0.7311
vn 0.3712 -0.6700 -0.6429
vn 0.5687 -0.6700 -0.4772
vn 0.6976 -0.6700 -0.2539
vn 0.7423 -0.6700 -0.0000
vn 0.9397 -0.0000 -0.3420
vn 1.0000 -0.0000 -0.0000
vn 0.7660 -0.0000 -0.6428
vn 0.5000 -0.0000 -0.8660
vn 0.1736 -0.0000 -0.9848
vn -0.1736 -0.0000 -0.9848
vn -0.5000 -0.0000 -0.8660
vn -0.7660 -0.0000 -0.6428
vn -0.9397 -0.0000 -0.3420
vn -1.0000 -0.0000 -0.0000
vn -0.9397 -0.0000 0.3420
vn -0.7660 -0.0000 0.6428
vn -0.5000 -0.0000 0.8660
vn -0.1736 -0.0000 0.9848
vn 0.1736 -0.0000 0.9848
vn 0.5000 -0.0000 0.8660
vn 0.7660 -0.0000 0.6428
vn 0.9397 -0.0000 0.3420
vn 0.6976 0.6700 -0.2539
vn 0.7423 0.6700 -0.0000
vn 0.5687 0.6700 -0.4772
vn 0.3712 0.6700 -0.6429
vn 0.1289 0.6700 -0.7311
vn -0.1289 0.6700 -0.7311
vn -0.3712 0.6700 -0.6429
vn -0.5687 0.6700 -0.4772
vn -0.6976 0.6700 -0.2539
vn -0.7423 0.6700 -0.0000
vn -0.6976 0.6700 0.2539
vn -0.5687 0.6700 0.4772
vn -0.3712 0.6700 0.6429
vn -0.1289 0.6700 0.7311
vn 0.1289 0.6700 0.7311
vn 0.3712 0.6700 0.6429
vn 0.5687 0.6700 0.4772
vn 0.6976 0.6700 0.2539
vt 0.146500 0.145100
vt 1.010000 0.000000
vt 0.000000 0.000000
vt 0.290800 0.045100
vt 1.010000 0.000000
vt 0.000000 0.000000
vt 0.460800 0.000000
vt 1.010000 0.000000
vt 0.000000 0.000000
vt 0.636200 0.015200
vt 1.010000 0.000000
vt 0.000000 0.000000
vt 0.795800 0.088900
vt 1.010000 0.000000
vt 0.000000 0.000000
vt 0.920300 0.212100
vt 1.010000 0.000000
vt 0.000000 0.000000
vt 0.994700 0.370100
vt 1.010000 0.000000
vt 0.000000 0.000000
vt 1.010000 0.543700
vt 1.010000 0.000000
vt 0.000000 0.000000
vt 0.964400 0.712100
vt 1.010000 0.000000
vt 0.000000 0.000000
vt 0.863500 0.854900
vt 1.010000 0.000000
vt 0.000000 0.000000
vt 0.719200 0.954900
vt 1.010000 0.000000
vt 0.000000 0.000000
vt 0.549200 1.000000
vt 1.010000 0.000000
vt 0.000000 0.000000
vt 0.373800 0.984800
vt 1.010000 0.000000
vt 0.000000 0.000000
vt 0.214200 0.911100
vt 1.010000 0.000000
vt 0.000000 0.000000
vt 0.089700 0.787900
vt 1.010000 0.000000
vt 0.000000 0.000000
vt 0.015300 0.629900
vt 1.010000 0.000000
vt 0.000000 0.000000
vt 0.000000 0.456300
vt 1.010000 0.000000
vt 0.000000 0.000000
vt 0.045600 0.287900
vt 0.000000 0.000000
vt 1.010000 0.000000
vt 1.010000 1.000000
vt 0.000000 1.000000
vt 1.010000 0.000000
vt 0.000000 0.000000
vt 0.000000 1.000000
vt 1.010000 1.000000
vt 0.000000 0.000000
vt 1.010000 0.000000
vt 1.010000 1.000000
vt 0.000000 1.000000
vt 1.010000 0.000000
vt 0.000000 0.000000
vt 1.010000 1.000000
vt 0.000000 1.000000
vt 1.010000 0.000000
vt 0.000000 0.000000
vt 1.010000 1.000000
vt 0.000000 1.000000
vt 1.010000 0.000000
vt 0.000000 0.000000
vt 1.010000 1.000000
vt 0.000000 1.000000
vt 1.010000 0.000000
vt 0.000000 0.000000
vt 1.010000 1.000000
vt 0.000000 1.000000
vt 1.010000 0.000000
vt 0.000000 0.000000
vt 1.010000 1.000000
vt 0.000000 1.000000
vt 1.010000 0.000000
vt 0.000000 0.000000
vt 1.010000 1.000000
vt 0.000000 1.000000
vt 1.010000 0.000000
vt 0.000000 0.000000
vt 1.010000 1.000000
vt 0.000000 1.000000
vt 1.010000 0.000000
vt 0.000000 0.000000
vt 1.010000 1.000000
vt 0.000000 1.000000
vt 1.010000 0.000000
vt 0.000000 0.000000
vt 1.010000 1.000000
vt 0.000000 1.000000
vt 1.010000 0.000000
vt 0.000000 0.000000
vt 1.010000 1.000000
vt 0.000000 1.000000
vt 1.010000 0.000000
vt 0.000000 0.000000
vt 1.010000 1.000000
vt 0.000000 1.000000
vt 1.010000 0.000000
vt 0.000000 0.000000
vt 1.010000 1.000000
vt 0.000000 1.000000
vt 1.010000 0.000000
vt 0.000000 0.000000
vt 1.010000 1.000000
vt 0.000000 1.000000
vt 1.010000 0.000000
vt 0.000000 0.000000
vt 1.010000 1.000000
vt 0.000000 1.000000
vt 1.010000 0.000000
vt 0.000000 0.000000
vt 1.010000 1.000000
vt 0.000000 1.000000
vt 1.010000 0.000000
vt 0.000000 0.000000
vt 1.010000 1.000000
vt 0.000000 1.000000
vt 1.010000 0.000000
vt 0.000000 0.000000
vt 0.000000 1.000000
vt 1.010000 1.000000
vt 0.000000 0.000000
vt 1.010000 0.000000
vt 1.010000 1.000000
vt 0.000000 1.000000
vt 1.010000 0.000000
vt 0.000000 0.000000
vt 1.010000 1.000000
vt 0.000000 1.000000
vt 1.010000 0.000000
vt 0.000000 0.000000
vt 1.010000 1.000000
vt 0.000000 1.000000
vt 1.010000 0.000000
vt 0.000000 0.000000
vt 1.010000 1.000000
vt 0.000000 1.000000
vt 1.010000 0.000000
vt 0.000000 0.000000
vt 1.010000 1.000000
vt 0.000000 1.000000
vt 1.010000 0.000000
vt 0.000000 0.000000
vt 1.010000 1.000000
vt 0.000000 1.000000
vt 1.010000 0.000000
vt 0.000000 0.000000
vt 1.010000 1.000000
vt 0.000000 1.000000
vt 1.010000 0.000000
vt 0.000000 0.000000
vt 1.010000 1.000000
vt 0.000000 1.000000
vt 1.010000 0.000000
vt 0.000000 0.000000
vt 1.010000 1.000000
vt 0.000000 1.000000
vt 1.010000 0.000000
vt 0.000000 0.000000
vt 1.010000 1.000000
vt 0.000000 1.000000
vt 1.010000 0.000000
vt 0.000000 0.000000
vt 1.010000 1.000000
vt 0.000000 1.000000
vt 1.010000 0.000000
vt 0.000000 0.000000
vt 1.010000 1.000000
vt 0.000000 1.000000
vt 1.010000 0.000000
vt 0.000000 0.000000
vt 1.010000 1.000000
vt 0.000000 1.000000
vt 1.010000 0.000000
vt 0.000000 0.000000
vt 1.010000 1.000000
vt 0.000000 1.000000
vt 1.010000 0.000000
vt 0.000000 0.000000
vt 1.010000 1.000000
vt 0.000000 1.000000
vt 1.010000 0.000000
vt 0.000000 0.000000
vt 1.010000 1.000000
vt 0.000000 1.000000
vt 1.010000 0.000000
vt 0.000000 0.000000
vt 1.010000 1.000000
vt 0.000000 1.000000
vt 1.010000 0.000000
vt 0.000000 0.000000
vt 0.000000 1.000000
vt 1.010000 1.000000
vt 0.000000 0.000000
vt 1.010000 0.000000
vt 1.010000 1.000000
vt 0.000000 1.000000
vt 1.010000 0.000000
vt 0.000000 0.000000
vt 1.010000 1.000000
vt 0.000000 1.000000
vt 1.010000 0.000000
vt 0.000000 0.000000
vt 1.010000 1.000000
vt 0.000000 1.000000
vt 1.010000 0.000000
vt 0.000000 0.000000
vt 1.010000 1.000000
vt 0.000000 1.000000
vt 1.010000 0.000000
vt 0.000000 0.000000
vt 1.010000 1.000000
vt 0.000000 1.000000
vt 1.010000 0.000000
vt 0.000000 0.000000
vt 1.010000 1.000000
vt 0.000000 1.000000
vt 1.010000 0.000000
vt 0.000000 0.000000
vt 1.010000 1.000000
vt 0.000000 1.000000
vt 1.010000 0.000000
vt 0.000000 0.000000
vt 1.010000 1.000000
vt 0.000000 1.000000
vt 1.010000 0.000000
vt 0.000000 0.000000
vt 1.010000 1.000000
vt 0.000000 1.000000
vt 1.010000 0.000000
vt 0.000000 0.000000
vt 1.010000 1.000000
vt 0.000000 1.000000
vt 1.010000 0.000000
vt 0.000000 0.000000
vt 1.010000 1.000000
vt 0.000000 1.000000
vt 1.010000 0.000000
vt 0.000000 0.000000
vt 1.010000 1.000000
vt 0.000000 1.000000
vt 1.010000 0.000000
vt 0.000000 0.000000
vt 1.010000 1.000000
vt 0.000000 1.000000
vt 1.010000 0.000000
vt 0.000000 0.000000
vt 1.010000 1.000000
vt 0.000000 1.000000
vt 1.010000 0.000000
vt 0.000000 0.000000
vt 1.010000 1.000000
vt 0.000000 1.000000
vt 1.010000 0.000000
vt 0.000000 0.000000
vt 1.010000 1.000000
vt 0.000000 1.000000
vt 1.010000 0.000000
vt 0.000000 0.000000
vt 1.010000 1.000000
vt 0.000000 1.000000
vt 1.010000 0.000000
vt 0.000000 0.000000
vt 0.000000 1.000000
vt 1.010000 1.000000
vt 0.000000 0.000000
vt 1.010000 0.000000
vt 1.010000 1.000000
vt 0.000000 1.000000
vt 1.010000 0.000000
vt 0.000000 0.000000
vt 1.010000 1.000000
vt 0.000000 1.000000
vt 1.010000 0.000000
vt 0.000000 0.000000
vt 1.010000 1.000000
vt 0.000000 1.000000
vt 1.010000 0.000000
vt 0.000000 0.000000
vt 1.010000 1.000000
vt 0.000000 1.000000
vt 1.010000 0.000000
vt 0.000000 0.000000
vt 1.010000 1.000000
vt 0.000000 1.000000
vt 1.010000 0.000000
vt 0.000000 0.000000
vt 1.010000 1.000000
vt 0.000000 1.000000
vt 1.010000 0.000000
vt 0.000000 0.000000
vt 1.010000 1.000000
vt 0.000000 1.000000
vt 1.010000 0.000000
vt 0.000000 0.000000
vt 1.010000 1.000000
vt 0.000000 1.000000
vt 1.010000 0.000000
vt 0.000000 0.000000
vt 1.010000 1.000000
vt 0.000000 1.000000
vt 1.010000 0.000000
vt 0.000000 0.000000
vt 1.010000 1.000000
vt 0.000000 1.000000
vt 1.010000 0.000000
vt 0.000000 0.000000
vt 1.010000 1.000000
vt 0.000000 1.000000
vt 1.010000 0.000000
vt 0.000000 0.000000
vt 1.010000 1.000000
vt 0.000000 1.000000
vt 1.010000 0.000000
vt 0.000000 0.000000
vt 1.010000 1.000000
vt 0.000000 1.000000
vt 1.010000 0.000000
vt 0.000000 0.000000
vt 1.010000 1.000000
vt 0.000000 1.000000
vt 1.010000 0.000000
vt 0.000000 0.000000
vt 1.010000 1.000000
vt 0.000000 1.000000
vt 1.010000 0.000000
vt 0.000000 0.000000
vt 1.010000 1.000000
vt 0.000000 1.000000
vt 1.010000 0.000000
vt 0.000000 0.000000
vt 1.010000 1.000000
vt 0.000000 1.000000
vt 0.460800 0.000000
vt 0.000000 1.000000
vt 1.010000 1.000000
vt 0.290800 0.045100
vt 1.010000 1.000000
vt 0.000000 1.000000
vt 0.636200 0.015200
vt 1.010000 1.000000
vt 0.000000 1.000000
vt 0.795800 0.088900
vt 1.010000 1.000000
vt 0.000000 1.000000
vt 0.920300 0.212100
vt 1.010000 1.000000
vt 0.000000 1.000000
vt 0.994700 0.370100
vt 1.010000 1.000000
vt 0.000000 1.000000
vt 1.010000 0.543700
vt 1.010000 1.000000
vt 0.000000 1.000000
vt 0.964400 0.712100
vt 1.010000 1.000000
vt 0.000000 1.000000
vt 0.863500 0.854900
vt 1.010000 1.000000
vt 0.000000 1.000000
vt 0.719200 0.954900
vt 1.010000 1.000000
vt 0.000000 1.000000
vt 0.549200 1.000000
vt 1.010000 1.000000
vt 0.000000 1.000000
vt 0.373800 0.984800
vt 1.010000 1.000000
vt 0.000000 1.000000
vt 0.214200 0.911100
vt 1.010000 1.000000
vt 0.000000 1.000000
vt 0.089700 0.787900
vt 1.010000 1.000000
vt 0.000000 1.000000
vt 0.015300 0.629900
vt 1.010000 1.000000
vt 0.000000 1.000000
vt 0.000000 0.456300
vt 1.010000 1.000000
vt 0.000000 1.000000
vt 0.045600 0.287900
vt 1.010000 1.000000
vt 0.000000 1.000000
vt 0.146500 0.145100
s 1
usemtl 01___Default
f 1/1/1 2/4/2 3/7/3 4/10/4 5/13/5 6/16/6 7/19/7 8/22/8 9/25/9 10/28/10 11/31/11 12/34/12 13/37/13 14/40/14 15/43/15 16/46/16 17/49/17 18/52/18
f 18/53/18 17/50/17 19/55/19 20/59/20
f 17/51/17 16/47/16 21/63/21 19/56/19
f 16/48/16 15/44/15 22/67/22 21/64/21
f 15/45/15 14/41/14 23/71/23 22/68/22
f 14/42/14 13/38/13 24/75/24 23/72/23
f 13/39/13 12/35/12 25/79/25 24/76/24
f 12/36/12 11/32/11 26/83/26 25/80/25
f 11/33/11 10/29/10 27/87/27 26/84/26
f 10/30/10 9/26/9 28/91/28 27/88/27
f 9/27/9 8/23/8 29/95/29 28/92/28
f 8/24/8 7/20/7 30/99/30 29/96/29
f 7/21/7 6/17/6 31/103/31 30/100/30
f 6/18/6 5/14/5 32/107/32 31/104/31
f 5/15/5 4/11/4 33/111/33 32/108/32
f 4/12/4 3/8/3 34/115/34 33/112/33
f 3/9/3 2/5/2 35/119/35 34/116/34
f 2/6/2 1/2/1 36/123/36 35/120/35
f 1/3/1 18/54/18 20/60/20 36/124/36
f 20/61/20 19/57/19 37/127/19 38/131/20
f 19/58/19 21/65/21 39/135/21 37/128/19
f 21/66/21 22/69/22 40/139/22 39/136/21
f 22/70/22 23/73/23 41/143/23 40/140/22
f 23/74/23 24/77/24 42/147/24 41/144/23
f 24/78/24 25/81/25 43/151/25 42/148/24
f 25/82/25 26/85/26 44/155/26 43/152/25
f 26/86/26 27/89/27 45/159/27 44/156/26
f 27/90/27 28/93/28 46/163/28 45/160/27
f 28/94/28 29/97/29 47/167/29 46/164/28
f 29/98/29 30/101/30 48/171/30 47/168/29
f 30/102/30 31/105/31 49/175/31 48/172/30
f 31/106/31 32/109/32 50/179/32 49/176/31
f 32/110/32 33/113/33 51/183/33 50/180/32
f 33/114/33 34/117/34 52/187/34 51/184/33
f 34/118/34 35/121/35 53/191/35 52/188/34
f 35/122/35 36/125/36 54/195/36 53/192/35
f 36/126/36 20/62/20 38/132/20 54/196/36
f 38/133/20 37/129/19 55/199/19 56/203/20
f 37/130/19 39/137/21 57/207/21 55/200/19
f 39/138/21 40/141/22 58/211/22 57/208/21
f 40/142/22 41/145/23 59/215/23 58/212/22
f 41/146/23 42/149/24 60/219/24 59/216/23
f 42/150/24 43/153/25 61/223/25 60/220/24
f 43/154/25 44/157/26 62/227/26 61/224/25
f 44/158/26 45/161/27 63/231/27 62/228/26
f 45/162/27 46/165/28 64/235/28 63/232/27
f 46/166/28 47/169/29 65/239/29 64/236/28
f 47/170/29 48/173/30 66/243/30 65/240/29
f 48/174/30 49/177/31 67/247/31 66/244/30
f 49/178/31 50/181/32 68/251/32 67/248/31
f 50/182/32 51/185/33 69/255/33 68/252/32
f 51/186/33 52/189/34 70/259/34 69/256/33
f 52/190/34 53/193/35 71/263/35 70/260/34
f 53/194/35 54/197/36 72/267/36 71/264/35
f 54/198/36 38/134/20 56/204/20 72/268/36
f 56/205/20 55/201/19 73/271/19 74/275/20
f 55/202/19 57/209/21 75/279/21 73/272/19
f 57/210/21 58/213/22 76/283/22 75/280/21
f 58/214/22 59/217/23 77/287/23 76/284/22
f 59/218/23 60/221/24 78/291/24 77/288/23
f 60/222/24 61/225/25 79/295/25 78/292/24
f 61/226/25 62/229/26 80/299/26 79/296/25
f 62/230/26 63/233/27 81/303/27 80/300/26
f 63/234/27 64/237/28 82/307/28 81/304/27
f 64/238/28 65/241/29 83/311/29 82/308/28
f 65/242/29 66/245/30 84/315/30 83/312/29
f 66/246/30 67/249/31 85/319/31 84/316/30
f 67/250/31 68/253/32 86/323/32 85/320/31
f 68/254/32 69/257/33 87/327/33 86/324/32
f 69/258/33 70/261/34 88/331/34 87/328/33
f 70/262/34 71/265/35 89/335/35 88/332/34
f 71/266/35 72/269/36 90/339/36 89/336/35
f 72/270/36 56/206/20 74/276/20 90/340/36
f 74/277/20 73/273/19 91/343/37 92/346/38
f 73/274/19 75/281/21 93/349/39 91/344/37
f 75/282/21 76/285/22 94/352/40 93/350/39
f 76/286/22 77/289/23 95/355/41 94/353/40
f 77/290/23 78/293/24 96/358/42 95/356/41
f 78/294/24 79/297/25 97/361/43 96/359/42
f 79/298/25 80/301/26 98/364/44 97/362/43
f 80/302/26 81/305/27 99/367/45 98/365/44
f 81/306/27 82/309/28 100/370/46 99/368/45
f 82/310/28 83/313/29 101/373/47 100/371/46
f 83/314/29 84/317/30 102/376/48 101/374/47
f 84/318/30 85/321/31 103/379/49 102/377/48
f 85/322/31 86/325/32 104/382/50 103/380/49
f 86/326/32 87/329/33 105/385/51 104/383/50
f 87/330/33 88/333/34 106/388/52 105/386/51
f 88/334/34 89/337/35 107/391/53 106/389/52
f 89/338/35 90/341/36 108/394/54 107/392/53
f 90/342/36 74/278/20 92/347/38 108/395/54
f 108/396/54 92/348/38 91/345/37 93/351/39 94/354/40 95/357/41 96/360/42 97/363/43 98/366/44 99/369/45 100/372/46 101/375/47 102/378/48 103/381/49 104/384/50 105/387/51 106/390/52 107/393/53
