# Blender 3.4.1
# www.blender.org
mtllib Pear.mtl
o PEAR
v -3.861435 2.541641 3.451167
v 3.443147 2.660164 3.514918
v -2.855490 11.239233 2.931329
v 2.105261 11.105296 3.085025
v -3.100874 11.242129 -3.116202
v 2.912364 11.561897 -2.586246
v -3.559760 2.633488 -3.535775
v 3.477863 2.615264 -3.492518
v -3.642167 12.320642 -0.132364
v 4.529157 6.654724 -4.143428
v -0.057808 1.607474 -4.456613
v -4.486918 6.599035 -4.478780
v 4.379726 1.647307 0.033600
v -4.432848 1.599217 0.051382
v -0.104260 1.709700 4.463976
v 3.871494 6.511994 4.321651
v -0.433087 11.880715 3.754619
v -4.572571 6.397614 4.355094
v 3.393743 11.858672 0.386268
v 0.020698 12.101673 -3.579900
v -0.131363 6.581221 5.972706
v 0.228918 6.475093 -6.110637
v -0.133612 0.064821 0.285359
v 5.939363 6.513787 0.177281
v -6.108639 6.565609 -0.038232
v -4.117686 8.993046 -4.180642
v 3.884294 9.211353 -3.539596
v 2.609270 6.613507 -5.578620
v 4.153682 4.199854 -3.993569
v 2.030620 1.954206 -4.148461
v -0.007653 3.850917 -5.696414
v -2.130263 1.937717 -4.155219
v -4.191016 4.247430 -4.166556
v -0.125773 0.418904 -2.257872
v -2.425995 0.349873 0.177533
v -4.148554 1.940809 -2.069703
v 4.077171 1.953036 -2.051880
v 2.232131 0.484533 0.192139
v 4.097248 1.972375 2.100267
v -0.137070 0.449941 2.588661
v -4.283537 1.890298 2.088404
v 5.647794 3.811308 0.071834
v 5.426675 6.557477 2.389415
v 5.646239 6.553136 -2.107057
v 5.238229 9.247892 0.268773
v -5.730700 3.829947 -0.024349
v -5.695569 6.614364 -2.462361
v -5.784869 6.390472 2.356914
v -5.407155 9.395973 -0.122384
v -2.365006 1.974188 4.111338
v -0.168471 3.935905 5.665186
v -2.467915 6.552426 5.570924
v -4.535113 4.047277 4.025453
v 2.040907 2.024774 4.158495
v 3.881895 4.214735 4.101858
v 1.849649 6.497133 5.542945
v 3.095600 8.808249 4.024735
v 0.937843 11.478776 3.610008
v -0.309866 9.290756 5.248692
v -1.825064 11.777697 3.481157
v -3.830611 8.874805 4.028881
v -3.353768 11.973179 1.698138
v 2.795246 11.498535 2.015491
v 3.428129 11.771903 -1.289955
v 1.748150 11.763391 -3.263959
v -2.001583 11.887801 -3.495383
v -3.556647 12.027214 -1.931406
v 0.292059 9.063789 -5.482003
v -2.304367 6.519341 -5.705319
v -2.599797 4.031579 5.211005
v 2.005300 4.065090 5.269268
v 1.344982 9.006559 4.972682
v -2.017948 9.165649 5.017392
v -2.050600 8.957371 -5.229480
v 2.376402 9.155619 -4.848258
v 2.246442 4.053946 -5.279271
v -2.281710 4.048648 -5.310174
v -2.270176 0.728033 -2.154981
v 2.101968 0.830709 -2.138824
v 2.110384 0.846692 2.373250
v -2.322497 0.738406 2.358180
v 5.209759 4.044287 2.233603
v 5.270649 3.951539 -2.076026
v 4.819604 9.234554 -1.730876
v 4.616316 9.008257 2.349179
v -5.331645 4.058113 -2.278127
v -5.539483 3.870059 2.171043
v -4.946070 9.083227 2.193621
v -5.201970 9.245823 -2.374681
v -2.450259 13.776217 2.246056
v -1.572026 14.035118 2.696463
v -3.024950 14.061150 1.286335
v -0.406269 14.062678 2.959669
v -3.202189 14.221622 -0.057511
v 0.735077 13.748036 2.867556
v 1.744911 13.464265 2.481827
v 2.362491 13.737512 1.629974
v 2.772714 13.977502 0.351481
v 2.845642 13.917068 -0.996691
v 2.492227 13.712405 -1.922756
v 1.389120 14.113071 -2.446586
v 0.013885 14.356261 -2.721645
v -3.070143 14.044150 -1.376225
v -1.455086 14.103404 -2.591753
v -2.716944 13.682918 -2.271245
v -2.262642 15.549658 1.602696
v -1.446898 15.840598 1.843249
v -1.399008 16.555901 0.983721
v -2.458281 15.886095 0.919922
v -0.333039 15.924979 2.074713
v -0.232916 16.706007 1.150907
v -0.132325 16.987019 0.135306
v -1.368431 16.796200 0.030492
v -2.524741 16.073662 -0.024403
v 0.772688 15.587304 2.074821
v 0.912775 16.384369 1.224319
v 1.637684 15.301035 1.924368
v 1.885312 15.634136 1.273659
v 2.096262 15.844954 0.311415
v 1.079654 16.738762 0.240948
v 1.159477 16.633410 -0.746512
v -0.050391 16.811687 -0.878398
v 2.171579 15.852214 -0.663880
v 2.089616 15.622400 -1.334191
v 1.205536 16.073875 -1.595285
v -0.003697 16.181120 -1.782996
v -1.277224 16.559195 -0.907098
v -2.375202 15.841015 -0.957342
v -1.253111 15.873349 -1.716173
v -2.166388 15.368347 -1.604879
v -0.565705 16.706774 0.296802
v -0.174946 16.706774 0.578372
v -0.565705 17.429676 0.296802
v -0.174946 17.429676 0.578372
v -0.284134 17.429676 -0.093956
v 0.106624 17.429676 0.187614
v -0.284134 16.706774 -0.093956
v 0.106624 16.706774 0.187614
v -0.471197 17.977680 0.364902
v -0.083071 17.921860 0.644576
v 0.198499 17.921860 0.253818
v -0.189627 17.977680 -0.025857
v -0.280875 18.515884 0.502044
v 0.107252 18.460064 0.781717
v 0.388822 18.460064 0.390959
v 0.000696 18.515884 0.111285
v -0.295355 18.966030 0.516690
v 0.125566 18.905495 0.819995
v 0.430927 18.905495 0.396220
v 0.010008 18.966030 0.092915
v -0.326155 19.242535 0.544607
v 0.160289 19.172573 0.895128
v 0.513187 19.172573 0.405382
v 0.026743 19.242535 0.054863
vn -0.4787 -0.4704 0.7414
vn -0.1844 -0.4750 0.8604
vn -0.1771 -0.1204 0.9768
vn -0.5049 -0.1114 0.8559
vn 0.1883 -0.4645 0.8653
vn 0.5141 -0.4127 0.7519
vn 0.5233 -0.0702 0.8492
vn 0.1949 -0.1071 0.9750
vn 0.2094 0.2611 0.9423
vn 0.4888 0.2794 0.8264
vn 0.4673 0.4916 0.7348
vn 0.2290 0.4965 0.8373
vn -0.4959 0.2593 0.8288
vn -0.1590 0.2381 0.9581
vn -0.1750 0.4973 0.8497
vn -0.5210 0.4916 0.6978
vn -0.4530 0.7157 0.5315
vn -0.1870 0.7601 0.6223
vn -0.1632 0.9564 0.2424
vn -0.5293 0.8255 0.1961
vn 0.1893 0.7208 0.6668
vn 0.4134 0.6730 0.6134
vn 0.5898 0.7376 0.3288
vn 0.1994 0.9259 0.3210
vn 0.1837 0.9754 -0.1220
vn 0.6361 0.7715 0.0117
vn 0.5499 0.7357 -0.3953
vn 0.1691 0.8196 -0.5474
vn -0.5094 0.8168 -0.2707
vn -0.1615 0.9626 -0.2177
vn -0.1848 0.7757 -0.6035
vn -0.4276 0.6729 -0.6036
vn -0.4346 0.4957 -0.7519
vn -0.1035 0.5147 -0.8511
vn -0.1332 0.2207 -0.9662
vn -0.4585 0.1979 -0.8664
vn 0.2364 0.5375 -0.8094
vn 0.5291 0.5157 -0.6739
vn 0.5914 0.2979 -0.7493
vn 0.2318 0.2562 -0.9384
vn 0.2092 -0.1571 -0.9652
vn 0.5774 -0.1568 -0.8013
vn 0.5262 -0.4476 -0.7230
vn 0.2033 -0.4787 -0.8541
vn -0.5030 -0.1579 -0.8498
vn -0.1679 -0.1478 -0.9747
vn -0.1935 -0.4762 -0.8578
vn -0.5080 -0.4568 -0.7302
vn -0.5111 -0.7036 -0.4936
vn -0.1765 -0.8509 -0.4947
vn -0.1310 -0.9797 -0.1515
vn -0.5245 -0.8308 -0.1861
vn 0.1977 -0.8591 -0.4721
vn 0.4856 -0.7343 -0.4744
vn 0.4751 -0.8626 -0.1739
vn 0.1770 -0.9736 -0.1443
vn 0.1826 -0.9690 0.1666
vn 0.4906 -0.8516 0.1845
vn 0.5005 -0.6938 0.5178
vn 0.1967 -0.8151 0.5448
vn -0.5226 -0.8362 0.1661
vn -0.1379 -0.9755 0.1714
vn -0.1741 -0.8116 0.5577
vn -0.4900 -0.7179 0.4945
vn 0.7248 -0.4187 0.5471
vn 0.8489 -0.4855 0.2087
vn 0.9703 -0.1055 0.2176
vn 0.7928 -0.0812 0.6041
vn 0.8456 -0.4994 -0.1884
vn 0.7357 -0.4571 -0.4999
vn 0.8559 -0.1449 -0.4964
vn 0.9807 -0.1212 -0.1532
vn 0.9471 0.2806 -0.1557
vn 0.8390 0.3183 -0.4413
vn 0.7756 0.4889 -0.3992
vn 0.8372 0.5373 -0.1021
vn 0.7196 0.2854 0.6330
vn 0.9283 0.2681 0.2576
vn 0.7570 0.5584 0.3393
vn 0.6084 0.5174 0.6018
vn -0.7298 -0.4671 -0.4991
vn -0.8460 -0.4956 -0.1967
vn -0.9737 -0.1431 -0.1775
vn -0.8418 -0.1652 -0.5138
vn -0.8499 -0.5157 0.1087
vn -0.7397 -0.4954 0.4555
vn -0.8600 -0.1028 0.4998
vn -0.9869 -0.1205 0.1072
vn -0.9444 0.2717 0.1855
vn -0.8096 0.2956 0.5071
vn -0.6957 0.4971 0.5185
vn -0.8339 0.5015 0.2306
vn -0.8373 0.1833 -0.5151
vn -0.9682 0.2119 -0.1326
vn -0.8485 0.5160 -0.1174
vn -0.6758 0.5155 -0.5269
vn -0.5402 0.3136 0.7809
vn -0.8177 0.2525 0.5174
vn -0.2097 0.3395 0.9169
vn -0.9642 0.2005 0.1735
vn 0.1808 0.3275 0.9274
vn 0.4437 0.2996 0.8446
vn 0.7540 0.2598 0.6033
vn 0.8970 0.2519 0.3632
vn 0.9625 0.2704 0.0210
vn 0.8712 0.2913 -0.3951
vn 0.5095 0.3473 -0.7873
vn 0.2380 0.3488 -0.9065
vn -0.9640 0.2447 -0.1042
vn -0.1068 0.3757 -0.9206
vn -0.4194 0.3914 -0.8191
vn -0.8143 0.3126 -0.4890
vn -0.4521 0.3774 0.8081
vn -0.8106 0.3094 0.4972
vn -0.2117 0.4279 0.8787
vn -0.9324 0.3290 0.1494
vn 0.1542 0.4040 0.9016
vn 0.3507 0.3287 0.8769
vn 0.7877 0.2600 0.5585
vn 0.8989 0.3083 0.3112
vn 0.9423 0.3306 0.0526
vn 0.8853 0.3271 -0.3305
vn 0.4740 0.3691 -0.7994
vn 0.2152 0.4268 -0.8784
vn -0.9130 0.3658 -0.1808
vn -0.1567 0.4514 -0.8785
vn -0.3525 0.4443 -0.8236
vn -0.7514 0.4258 -0.5040
vn -0.5846 -0.0000 0.8113
vn 0.0940 0.9933 0.0678
vn 0.5846 -0.0000 -0.8113
vn 0.8113 -0.0000 0.5846
vn 0.8078 -0.0928 0.5821
vn -0.8113 -0.0000 -0.5846
vn -0.8079 0.0913 -0.5822
vn 0.7687 -0.3198 0.5539
vn -0.7720 0.3075 -0.5563
vn -0.5866 -0.0226 0.8096
vn -0.5863 -0.0194 0.8098
vn 0.7832 -0.2609 0.5644
vn 0.5827 -0.0194 -0.8125
vn 0.5823 -0.0226 -0.8126
vn -0.7720 0.3076 -0.5563
vn -0.7913 0.2209 -0.5702
vn -0.5907 -0.0883 0.8021
vn -0.5908 -0.0908 0.8017
vn 0.8006 -0.1617 0.5769
vn 0.5736 -0.0908 -0.8141
vn 0.5739 -0.0883 -0.8141
vn -0.8112 -0.0177 -0.5845
vn -0.5921 -0.1460 0.7925
vn 0.7833 -0.2606 0.5644
vn 0.5644 -0.1460 -0.8125
vn -0.8109 -0.0313 -0.5843
vt 0.116272 0.179837
vt 0.371296 0.162890
vt 0.210271 0.422068
vt 0.358514 0.386555
vt 0.761709 0.694553
vt 0.635131 0.831427
vt 0.627206 0.532810
vt 0.477805 0.672236
vt 0.150730 0.505765
vt 0.859832 0.677319
vt 0.536686 0.742168
vt 0.539766 0.555442
vt 0.506097 0.585930
vt 0.688474 0.599132
vt 0.454476 0.111408
vt 0.390567 0.695265
vt 0.653980 0.444596
vt 0.005470 0.155411
vt 0.279960 0.122096
vt 0.218360 0.109572
vt 0.370553 0.257966
vt 0.286263 0.414135
vt 0.152163 0.295316
vt 0.440791 0.419455
vt 0.594183 0.918342
vt 0.709639 0.775370
vt 0.267787 0.267112
vt 0.605233 0.667129
vt 0.534140 0.423408
vt 0.375436 0.570023
vt 0.355371 0.014351
vt 0.087240 0.001992
vt 0.457122 0.815716
vt 0.489341 0.254861
vt 0.028066 0.345785
vt 0.770519 0.523104
vt 0.721510 0.640284
vt 0.580368 0.784579
vt 0.571082 0.705847
vt 0.502472 0.702022
vt 0.489696 0.635406
vt 0.566027 0.617610
vt 0.589580 0.541363
vt 0.654498 0.561868
vt 0.532214 0.490213
vt 0.442212 0.571929
vt 0.594017 0.428759
vt 0.038679 0.072626
vt 0.637687 0.495154
vt 0.440694 0.681111
vt 0.377809 0.632461
vt 0.407892 0.058801
vt 0.406394 0.140306
vt 0.311977 0.065174
vt 0.159181 0.050043
vt 0.073053 0.169683
vt 0.481391 0.177882
vt 0.415621 0.756628
vt 0.429633 0.256967
vt 0.498960 0.776682
vt 0.514399 0.867738
vt 0.477374 0.334680
vt 0.714573 0.476109
vt 0.001846 0.253352
vt 0.726851 0.565376
vt 0.094284 0.314175
vt 0.075998 0.428336
vt 0.816399 0.587632
vt 0.156614 0.152369
vt 0.257816 0.192684
vt 0.210450 0.280367
vt 0.131308 0.244457
vt 0.334115 0.145380
vt 0.371306 0.203731
vt 0.315596 0.260448
vt 0.362951 0.316268
vt 0.323074 0.398050
vt 0.275040 0.336391
vt 0.247174 0.422342
vt 0.180836 0.352783
vt 0.188207 0.461286
vt 0.393188 0.400831
vt 0.616641 0.870704
vt 0.666328 0.805535
vt 0.747530 0.730052
vt 0.805957 0.693989
vt 0.643594 0.711529
vt 0.647530 0.631905
vt 0.187470 0.218476
vt 0.318013 0.200708
vt 0.314736 0.323961
vt 0.232665 0.343183
vt 0.682132 0.673605
vt 0.610115 0.748464
vt 0.534902 0.663836
vt 0.614388 0.589426
vt 0.585999 0.486984
vt 0.436455 0.628129
vt 0.363980 0.099970
vt 0.107715 0.106233
vt 0.425637 0.195250
vt 0.461810 0.729687
vt 0.548744 0.824011
vt 0.419802 0.320921
vt 0.685208 0.524057
vt 0.072145 0.245472
vt 0.131081 0.382582
vt 0.764054 0.615954
vt 0.241554 0.490668
vt 0.269098 0.485247
vt 0.220735 0.515817
vt 0.299799 0.476136
vt 0.195809 0.548224
vt 0.894748 0.735317
vt 0.328905 0.463407
vt 0.358183 0.454939
vt 0.386205 0.466449
vt 0.422177 0.483145
vt 0.659198 0.956167
vt 0.676962 0.911540
vt 0.687798 0.879307
vt 0.723433 0.857381
vt 0.760767 0.829350
vt 0.847997 0.748618
vt 0.791332 0.790837
vt 0.813901 0.752502
vt 0.261998 0.537077
vt 0.284755 0.535085
vt 0.289712 0.564041
vt 0.256158 0.557017
vt 0.312658 0.527632
vt 0.321376 0.557707
vt 0.330539 0.587342
vt 0.893261 0.973692
vt 0.290074 0.593065
vt 0.924952 0.887563
vt 0.246491 0.583530
vt 0.925012 0.812732
vt 0.338873 0.514793
vt 0.350503 0.543418
vt 0.360398 0.505823
vt 0.374537 0.520139
vt 0.397180 0.538379
vt 0.732893 0.988339
vt 0.366850 0.569926
vt 0.805958 0.998008
vt 0.791281 0.945425
vt 0.834067 0.910016
vt 0.740659 0.948310
vt 0.740445 0.922493
vt 0.773004 0.909611
vt 0.807279 0.880172
vt 0.873815 0.867339
vt 0.882133 0.812853
vt 0.837276 0.842073
vt 0.850717 0.806086
vt 0.709529 0.116627
vt 0.785427 0.126953
vt 0.708346 0.234334
vt 0.776908 0.238345
vt 0.914154 0.245275
vt 0.639097 0.239560
vt 0.846672 0.242783
vt 0.924304 0.142743
vt 0.631146 0.121931
vt 0.856006 0.135993
vt 0.717052 0.304424
vt 0.776896 0.308059
vt 0.836807 0.311610
vt 0.896317 0.315116
vt 0.657182 0.316654
vt 0.733080 0.371556
vt 0.780757 0.370616
vt 0.824327 0.374002
vt 0.871820 0.376918
vt 0.678934 0.384429
vt 0.741478 0.417261
vt 0.780184 0.406030
vt 0.819624 0.414453
vt 0.869701 0.421833
vt 0.689983 0.430347
vt 0.751369 0.440649
vt 0.780784 0.419149
vt 0.812023 0.437999
vt 0.783009 0.469661
vt 0.868698 0.448492
vt 0.694016 0.457828
s 0
usemtl lambert6SG
f 1/1/1 50/69/1 70/89/1 53/72/1
f 50/69/2 15/20/2 51/70/2 70/89/2
f 70/89/3 51/70/3 21/27/3 52/71/3
f 53/72/4 70/89/4 52/71/4 18/23/4
f 15/19/5 54/73/5 71/90/5 51/70/5
f 54/73/6 2/2/6 55/74/6 71/90/6
f 71/90/7 55/74/7 16/21/7 56/75/7
f 51/70/8 71/90/8 56/75/8 21/27/8
f 21/27/9 56/75/9 72/91/9 59/78/9
f 56/75/10 16/21/10 57/76/10 72/91/10
f 72/91/11 57/76/11 4/4/11 58/77/11
f 59/78/12 72/91/12 58/77/12 17/22/12
f 18/23/13 52/71/13 73/92/13 61/80/13
f 52/71/14 21/27/14 59/78/14 73/92/14
f 73/92/15 59/78/15 17/22/15 60/79/15
f 61/80/16 73/92/16 60/79/16 3/3/16
f 106/127/17 107/128/17 108/129/17 109/130/17
f 107/128/18 110/131/18 111/132/18 108/129/18
f 108/129/19 111/132/19 112/133/19 113/135/19
f 109/130/20 108/129/20 113/135/20 114/137/20
f 110/131/21 115/139/21 116/140/21 111/132/21
f 115/139/22 117/141/22 118/142/22 116/140/22
f 116/140/23 118/142/23 119/143/23 120/145/23
f 111/132/24 116/140/24 120/145/24 112/133/24
f 112/134/25 120/146/25 121/147/25 122/148/25
f 120/146/26 119/144/26 123/149/26 121/147/26
f 121/147/27 123/149/27 124/150/27 125/151/27
f 122/148/28 121/147/28 125/151/28 126/152/28
f 114/138/29 113/136/29 127/153/29 128/154/29
f 113/136/30 112/134/30 122/148/30 127/153/30
f 127/153/31 122/148/31 126/152/31 129/155/31
f 128/154/32 127/153/32 129/155/32 130/156/32
f 5/5/33 66/85/33 74/93/33 26/37/33
f 66/85/34 20/26/34 68/87/34 74/93/34
f 74/93/35 68/87/35 22/28/35 69/88/35
f 26/37/36 74/93/36 69/88/36 12/14/36
f 20/26/37 65/84/37 75/94/37 68/87/37
f 65/84/38 6/6/38 27/38/38 75/94/38
f 75/94/39 27/38/39 10/11/39 28/39/39
f 68/87/40 75/94/40 28/39/40 22/28/40
f 22/28/41 28/39/41 76/95/41 31/42/41
f 28/39/42 10/11/42 29/40/42 76/95/42
f 76/95/43 29/40/43 8/8/43 30/41/43
f 31/42/44 76/95/44 30/41/44 11/13/44
f 12/14/45 69/88/45 77/96/45 33/44/45
f 69/88/46 22/28/46 31/42/46 77/96/46
f 77/96/47 31/42/47 11/12/47 32/43/47
f 33/44/48 77/96/48 32/43/48 7/7/48
f 7/7/49 32/43/49 78/97/49 36/49/49
f 32/43/50 11/12/50 34/45/50 78/97/50
f 78/97/51 34/45/51 23/29/51 35/47/51
f 36/49/52 78/97/52 35/47/52 14/17/52
f 11/13/53 30/41/53 79/98/53 34/46/53
f 30/41/54 8/8/54 37/50/54 79/98/54
f 79/98/55 37/50/55 13/16/55 38/51/55
f 34/46/56 79/98/56 38/51/56 23/30/56
f 23/31/57 38/52/57 80/99/57 40/54/57
f 38/52/58 13/15/58 39/53/58 80/99/58
f 80/99/59 39/53/59 2/2/59 54/73/59
f 40/54/60 80/99/60 54/73/60 15/19/60
f 14/18/61 35/48/61 81/100/61 41/56/61
f 35/48/62 23/32/62 40/55/62 81/100/62
f 81/100/63 40/55/63 15/20/63 50/69/63
f 41/56/64 81/100/64 50/69/64 1/1/64
f 2/2/65 39/53/65 82/101/65 55/74/65
f 39/53/66 13/15/66 42/57/66 82/101/66
f 82/101/67 42/57/67 24/34/67 43/59/67
f 55/74/68 82/101/68 43/59/68 16/21/68
f 13/16/69 37/50/69 83/102/69 42/58/69
f 37/50/70 8/8/70 29/40/70 83/102/70
f 83/102/71 29/40/71 10/11/71 44/60/71
f 42/58/72 83/102/72 44/60/72 24/33/72
f 24/33/73 44/60/73 84/103/73 45/61/73
f 44/60/74 10/11/74 27/38/74 84/103/74
f 84/103/75 27/38/75 6/6/75 64/83/75
f 45/61/76 84/103/76 64/83/76 19/25/76
f 16/21/77 43/59/77 85/104/77 57/76/77
f 43/59/78 24/34/78 45/62/78 85/104/78
f 85/104/79 45/62/79 19/24/79 63/82/79
f 57/76/80 85/104/80 63/82/80 4/4/80
f 7/7/81 36/49/81 86/105/81 33/44/81
f 36/49/82 14/17/82 46/63/82 86/105/82
f 86/105/83 46/63/83 25/36/83 47/65/83
f 33/44/84 86/105/84 47/65/84 12/14/84
f 14/18/85 41/56/85 87/106/85 46/64/85
f 41/56/86 1/1/86 53/72/86 87/106/86
f 87/106/87 53/72/87 18/23/87 48/66/87
f 46/64/88 87/106/88 48/66/88 25/35/88
f 25/35/89 48/66/89 88/107/89 49/67/89
f 48/66/90 18/23/90 61/80/90 88/107/90
f 88/107/91 61/80/91 3/3/91 62/81/91
f 49/67/92 88/107/92 62/81/92 9/9/92
f 12/14/93 47/65/93 89/108/93 26/37/93
f 47/65/94 25/36/94 49/68/94 89/108/94
f 89/108/95 49/68/95 9/10/95 67/86/95
f 26/37/96 89/108/96 67/86/96 5/5/96
f 3/3/97 60/79/97 91/110/97 90/109/97
f 62/81/98 3/3/98 90/109/98 92/111/98
f 60/79/99 17/22/99 93/112/99 91/110/99
f 9/9/100 62/81/100 92/111/100 94/113/100
f 17/22/101 58/77/101 95/115/101 93/112/101
f 58/77/102 4/4/102 96/116/102 95/115/102
f 4/4/103 63/82/103 97/117/103 96/116/103
f 63/82/104 19/24/104 98/118/104 97/117/104
f 19/25/105 64/83/105 99/120/105 98/119/105
f 64/83/106 6/6/106 100/121/106 99/120/106
f 6/6/107 65/84/107 101/122/107 100/121/107
f 65/84/108 20/26/108 102/123/108 101/122/108
f 67/86/109 9/10/109 94/114/109 103/124/109
f 20/26/110 66/85/110 104/125/110 102/123/110
f 66/85/111 5/5/111 105/126/111 104/125/111
f 5/5/112 67/86/112 103/124/112 105/126/112
f 90/109/113 91/110/113 107/128/113 106/127/113
f 92/111/114 90/109/114 106/127/114 109/130/114
f 91/110/115 93/112/115 110/131/115 107/128/115
f 94/113/116 92/111/116 109/130/116 114/137/116
f 93/112/117 95/115/117 115/139/117 110/131/117
f 95/115/118 96/116/118 117/141/118 115/139/118
f 96/116/119 97/117/119 118/142/119 117/141/119
f 97/117/120 98/118/120 119/143/120 118/142/120
f 98/119/121 99/120/121 123/149/121 119/144/121
f 99/120/122 100/121/122 124/150/122 123/149/122
f 100/121/123 101/122/123 125/151/123 124/150/123
f 101/122/124 102/123/124 126/152/124 125/151/124
f 103/124/125 94/114/125 114/138/125 128/154/125
f 102/123/126 104/125/126 129/155/126 126/152/126
f 104/125/127 105/126/127 130/156/127 129/155/127
f 105/126/128 103/124/128 128/154/128 130/156/128
f 131/157/129 132/158/129 134/160/129 133/159/129
f 151/182/130 152/183/130 153/184/130 154/185/130
f 135/161/131 136/163/131 138/166/131 137/164/131
f 132/158/132 138/166/132 136/163/133 134/160/133
f 137/165/134 131/157/134 133/159/135 135/162/135
f 133/159/129 134/160/129 140/168/129 139/167/129
f 134/160/133 136/163/133 141/169/136 140/168/136
f 136/163/131 135/161/131 142/170/131 141/169/131
f 135/162/135 133/159/135 139/167/137 142/171/137
f 139/167/129 140/168/129 144/173/138 143/172/139
f 140/168/136 141/169/136 145/174/140 144/173/140
f 141/169/131 142/170/131 146/175/141 145/174/142
f 142/171/143 139/167/143 143/172/144 146/176/144
f 143/172/139 144/173/138 148/178/145 147/177/146
f 144/173/140 145/174/140 149/179/147 148/178/147
f 145/174/142 146/175/141 150/180/148 149/179/149
f 146/176/144 143/172/144 147/177/150 150/181/150
f 147/177/146 148/178/145 152/183/151 151/182/151
f 148/178/147 149/179/147 153/184/152 152/183/152
f 149/179/149 150/180/148 154/186/153 153/184/153
f 150/181/150 147/177/150 151/182/154 154/187/154
