# Blender 3.4.1
# www.blender.org
mtllib blockwall.mtl
o BLOCKWALL
v 0.000000 0.333333 1.000000
v 0.000000 0.666667 1.000000
v 0.000000 0.333333 0.666667
v 0.000000 0.666667 0.666667
v 0.333333 0.333333 1.000000
v 0.333333 0.666667 1.000000
v 0.333333 0.333333 0.666667
v 0.333333 0.666667 0.666667
v 0.333333 0.333333 1.000000
v 0.333333 -0.000000 1.000000
v 0.000000 0.333333 0.666667
v 0.000000 -0.000000 0.666667
v 0.000000 0.333333 1.000000
v 0.000000 -0.000000 1.000000
v 1.000000 0.333333 0.666667
v 1.000000 -0.000000 0.666667
v 1.000000 0.333333 1.000000
v 1.000000 -0.000000 1.000000
v 0.333333 -0.000000 0.000000
v 0.000000 -0.000000 0.000000
v 0.000000 0.333333 0.000000
v 0.333333 0.333333 0.000000
v 1.000000 0.333333 0.000000
v 1.000000 -0.000000 0.000000
v 0.333333 1.000000 1.000000
v 0.333333 0.666667 1.000000
v 0.000000 1.000000 0.666667
v 0.000000 0.666667 0.666667
v 0.000000 1.000000 1.000000
v 0.000000 0.666667 1.000000
v 1.000000 1.000000 0.666667
v 1.000000 0.666667 0.666667
v 1.000000 1.000000 1.000000
v 1.000000 0.666667 1.000000
v 0.333333 0.666667 0.000000
v 0.000000 0.666667 0.000000
v 0.000000 1.000000 0.000000
v 0.333333 1.000000 0.000000
v 1.000000 1.000000 0.000000
v 1.000000 0.666667 0.000000
v 1.000000 1.000000 0.000000
v 1.000000 0.666667 0.000000
v 0.000000 1.000000 0.000000
v 0.000000 0.666667 0.000000
v 0.333333 1.000000 0.000000
v 0.333333 0.666667 0.000000
v 0.666667 0.333333 1.000000
v 0.666667 0.666667 1.000000
v 0.666667 0.333333 0.666667
v 0.666667 0.666667 0.666667
v 1.000000 0.333333 1.000000
v 1.000000 0.666667 1.000000
v 1.000000 0.333333 0.666667
v 1.000000 0.666667 0.666667
v 0.000000 0.333333 0.333333
v 0.000000 0.666667 0.333333
v 0.000000 0.333333 0.000000
v 0.000000 0.666667 0.000000
v 0.333333 0.333333 0.333333
v 0.333333 0.666667 0.333333
v 0.333333 0.333333 0.000000
v 0.333333 0.666667 0.000000
v 0.666667 0.333333 0.333333
v 0.666667 0.666667 0.333333
v 0.666667 0.333333 0.000000
v 0.666667 0.666667 0.000000
v 1.000000 0.333333 0.333333
v 1.000000 0.666667 0.333333
v 1.000000 0.333333 0.000000
v 1.000000 0.666667 0.000000
vn -1.0000 -0.0000 -0.0000
vn -0.0000 -0.0000 -1.0000
vn 1.0000 -0.0000 -0.0000
vn -0.0000 -0.0000 1.0000
vn -0.0000 -1.0000 -0.0000
vn -0.0000 1.0000 -0.0000
vt 1.000000 0.333333
vt 0.000000 0.333333
vt 0.125000 0.750000
vt 1.000000 0.666667
vt 0.000000 0.666667
vt 0.875000 0.750000
vt 0.666667 0.333333
vt 0.000000 0.333333
vt 0.125000 0.500000
vt 0.666667 0.666667
vt 0.000000 0.666667
vt 0.875000 0.500000
vt 0.000000 0.333333
vt 0.333333 0.333333
vt 0.375000 0.750000
vt 0.000000 0.666667
vt 0.333333 0.666667
vt 0.625000 0.750000
vt 0.333333 0.333333
vt 0.375000 0.500000
vt 0.333333 0.666667
vt 0.625000 0.500000
vt 0.333333 0.333333
vt 0.666634 0.999900
vt 0.333333 0.000000
vt 0.000100 0.333367
vt 0.666667 0.333333
vt 0.999900 0.666633
vt 0.333367 0.000100
vt 0.666667 0.000000
vt 0.000000 0.333333
vt 1.000000 0.333333
vt 0.999900 0.999900
vt 0.000000 0.000000
vt 0.000100 0.000100
vt 1.000000 0.000000
vt 0.333333 0.333333
vt 0.000100 0.666634
vt 0.333367 0.999900
vt 0.333333 0.000000
vt 1.000000 0.333333
vt 0.000000 0.333333
vt 0.000100 0.999900
vt 1.000000 0.000000
vt 0.000100 0.999900
vt 0.000000 0.000000
vt 0.999900 0.333367
vt 0.666667 0.000000
vt 0.999900 0.000100
vt 1.000000 0.000000
vt 0.000000 0.000000
vt 1.000000 0.333334
vt 0.000000 0.333333
vt 0.999900 0.000100
vt 0.666667 0.333334
vt 0.666633 0.000100
vt 0.000000 0.333334
vt 1.000000 0.333333
vt 0.000100 0.000100
vt 0.999900 0.999900
vt 0.000000 0.000000
vt 1.000000 0.000000
vt 0.333333 1.000000
vt 0.999900 0.333367
vt 0.333333 0.666667
vt 0.000100 0.333367
vt 0.666667 1.000000
vt 0.666634 0.000100
vt 0.333367 0.000100
vt 0.666667 0.666667
vt 0.000000 1.000000
vt 1.000000 1.000000
vt 0.999900 0.000100
vt 0.000000 0.666667
vt 0.000100 0.000100
vt 1.000000 0.666667
vt 0.333333 1.000000
vt 0.666634 0.999900
vt 0.333367 0.999900
vt 0.333333 0.666667
vt 1.000000 1.000000
vt 0.000000 1.000000
vt 0.999900 0.999900
vt 1.000000 0.666667
vt 0.000100 0.999900
vt 0.000000 0.666667
vt 0.999900 0.333367
vt 0.375000 0.500000
vt 0.999900 0.000100
vt 0.000000 0.666666
vt 0.375000 0.250000
vt 0.125000 0.500000
vt 0.000000 1.000000
vt 0.000100 0.000100
vt 0.875000 0.500000
vt 0.625000 0.250000
vt 0.000100 0.333367
vt 0.625000 0.500000
vt 1.000000 1.000000
vt 0.000100 0.999900
vt 0.625000 0.500000
vt 0.999900 0.999900
vt 1.000000 0.666667
vt 0.375000 0.500000
vt 0.000000 1.000000
vt 0.625000 0.500000
vt 0.000000 0.666667
vt 0.375000 0.500000
vt 1.000000 1.000000
vt 0.875000 0.500000
vt 0.625000 0.250000
vt 1.000000 0.666667
vt 0.375000 0.250000
vt 0.125000 0.500000
vt 0.666667 1.000000
vt 0.625000 0.500000
vt 0.666667 0.666667
vt 0.375000 0.500000
vt 0.000000 0.333333
vt 0.666667 0.333333
vt 0.125000 0.750000
vt 0.000000 0.666667
vt 0.666667 0.666667
vt 0.875000 0.750000
vt 0.333333 0.333333
vt 0.666667 0.333333
vt 0.125000 0.500000
vt 0.333333 0.666667
vt 0.666667 0.666667
vt 0.875000 0.500000
vt 0.000000 0.333333
vt 1.000000 0.333333
vt 0.375000 0.750000
vt 0.000000 0.666667
vt 1.000000 0.666667
vt 0.625000 0.750000
vt 1.000000 0.333333
vt 0.333333 0.333333
vt 0.375000 0.500000
vt 1.000000 0.666667
vt 0.333333 0.666667
vt 0.625000 0.500000
vt 0.333333 0.333333
vt 0.000000 0.333333
vt 0.125000 0.750000
vt 0.333333 0.666666
vt 0.000000 0.666667
vt 0.875000 0.750000
vt 0.000000 0.333333
vt 1.000000 0.333334
vt 0.125000 0.500000
vt 0.000000 0.666666
vt 1.000000 0.666667
vt 0.875000 0.500000
vt 0.666667 0.333333
vt 0.333333 0.333333
vt 0.375000 0.750000
vt 0.666667 0.666667
vt 0.333333 0.666667
vt 0.625000 0.750000
vt 0.666667 0.333334
vt 1.000000 0.333333
vt 0.375000 0.500000
vt 0.666667 0.666667
vt 1.000000 0.666667
vt 0.625000 0.500000
vt 0.666667 0.333333
vt 0.125000 0.750000
vt 0.666667 0.666667
vt 0.875000 0.750000
vt 1.000000 0.333333
vt 0.333333 0.333334
vt 0.125000 0.500000
vt 1.000000 0.666667
vt 0.333333 0.666667
vt 0.875000 0.500000
vt 0.666667 0.333333
vt 1.000000 0.333333
vt 0.375000 0.750000
vt 0.666667 0.666667
vt 1.000000 0.666667
vt 0.625000 0.750000
vt 0.000000 0.333334
vt 1.000000 0.333333
vt 0.375000 0.500000
vt 0.000000 0.666667
vt 1.000000 0.666667
vt 0.625000 0.500000
s 0
usemtl Material.002
f 1/1/1 2/4/1 4/10/1 3/7/1
f 3/8/2 4/11/2 8/21/2 7/19/2
f 7/19/3 8/21/3 6/16/3 5/13/3
f 5/14/4 6/17/4 2/5/4 1/2/4
f 3/9/5 7/20/5 5/15/5 1/3/5
f 8/22/6 4/12/6 2/6/6 6/18/6
f 9/23/4 13/31/4 14/34/4 10/25/4 18/44/4 17/41/4
f 16/39/5 18/45/5 10/26/5 14/35/5 12/29/5 20/49/5 19/47/5 24/60/5
f 20/50/2 21/52/2 22/55/2 23/57/2 24/61/2 19/48/2
f 14/36/1 13/32/1 11/27/1 21/53/1 20/51/1 12/30/1
f 15/37/3 17/42/3 18/46/3 16/40/3 24/62/3 23/58/3
f 11/28/6 13/33/6 9/24/6 17/43/6 15/38/6 23/59/6 22/56/6 21/54/6
f 25/63/4 29/71/4 30/74/4 26/65/4 34/84/4 33/81/4
f 32/79/5 34/85/5 26/66/5 30/75/5 28/69/5 36/89/5 35/87/5 40/102/5
f 40/104/6 35/88/6 46/118/6 42/108/6
f 30/76/1 29/72/1 27/67/1 37/93/1 36/90/1 28/70/1
f 31/77/3 33/82/3 34/86/3 32/80/3 40/103/3 39/99/3
f 27/68/6 29/73/6 25/64/6 33/83/6 31/78/6 39/100/6 38/97/6 37/94/6
f 44/112/2 43/109/2 45/115/2 41/105/2 42/107/2 46/117/2
f 37/95/6 38/98/6 45/116/6 43/110/6
f 38/98/6 39/101/6 41/106/6 45/116/6
f 36/91/6 37/96/6 43/111/6 44/113/6
f 39/101/6 40/104/6 42/108/6 41/106/6
f 35/88/6 36/92/6 44/114/6 46/118/6
f 47/119/1 48/122/1 50/128/1 49/125/1
f 49/126/2 50/129/2 54/140/2 53/137/2
f 53/138/3 54/141/3 52/134/3 51/131/3
f 51/132/4 52/135/4 48/123/4 47/120/4
f 49/127/5 53/139/5 51/133/5 47/121/5
f 54/142/6 50/130/6 48/124/6 52/136/6
f 55/143/1 56/146/1 58/152/1 57/149/1
f 57/150/2 58/153/2 62/164/2 61/161/2
f 61/162/3 62/165/3 60/158/3 59/155/3
f 59/156/4 60/159/4 56/147/4 55/144/4
f 57/151/5 61/163/5 59/157/5 55/145/5
f 62/166/6 58/154/6 56/148/6 60/160/6
f 63/167/1 64/169/1 66/174/1 65/171/1
f 65/172/2 66/175/2 70/186/2 69/183/2
f 69/184/3 70/187/3 68/180/3 67/177/3
f 67/178/4 68/181/4 64/169/4 63/167/4
f 65/173/5 69/185/5 67/179/5 63/168/5
f 70/188/6 66/176/6 64/170/6 68/182/6
