# Blender 3.4.1
# www.blender.org
mtllib heart2.mtl
o HEART
v 1.446700 1.738750 -0.722425
v 1.060750 1.087450 -0.535625
v 1.636900 1.469650 -0.397925
v 0.614200 0.501175 -0.339900
v 0.602800 0.983075 -0.668800
v 2.129700 3.663300 -0.770301
v 1.988250 4.190175 -0.715501
v 1.524600 4.030625 -0.928576
v 1.605775 4.701025 -0.565101
v 2.421325 3.871250 -0.466476
v 0.985750 1.600425 -0.832900
v 0.652900 1.772150 -0.953375
v 1.242025 2.119525 -0.935325
v 0.744575 2.827400 -1.114100
v 1.131850 3.494775 -1.059351
v 0.697375 3.903750 -0.999926
v 1.481800 2.955900 -1.010175
v 2.039025 2.735475 -0.776800
v 2.356300 3.235975 -0.629626
v 2.395000 2.612750 -0.435275
v 1.085000 4.436825 -0.816726
v 0.598825 4.576600 -0.600951
v 1.858700 3.404175 -0.905751
v 1.725825 1.373975 -0.002700
v 2.171225 1.979600 -0.218625
v 2.529125 2.591600 -0.002700
v 0.293775 4.118400 -0.844051
v 0.000000 3.672775 -1.028576
v 0.000000 4.282525 -0.604226
v 0.293825 1.190775 -0.811550
v 0.000000 0.756925 -0.655125
v 0.000000 1.606725 -0.948800
v 0.362475 3.274425 -1.117425
v 0.000000 2.691025 -1.137350
v 0.645525 0.344975 -0.002700
v 0.270925 0.132525 -0.163600
v 0.000000 0.011575 -0.002700
v 0.000000 0.204875 -0.324325
v 0.351350 2.175425 -1.067650
v 1.059250 2.403375 -1.034625
v 1.609750 2.369700 -0.884700
v 1.145950 0.836225 -0.187750
v 2.152350 4.515125 -0.269826
v 1.641526 4.924750 -0.002701
v 2.542225 3.970625 -0.002701
v 2.620800 3.271725 -0.230901
v 1.070351 4.913650 -0.311851
v 0.575775 4.821000 -0.002701
v 1.960850 2.100450 -0.599475
v 0.242625 4.544175 -0.315601
v 0.000000 4.488575 -0.002701
v 0.263550 0.496650 -0.493750
v -1.446700 1.738750 -0.725975
v -1.060750 1.087450 -0.536025
v -0.602800 0.983075 -0.668800
v -0.614200 0.501175 -0.339900
v -1.636900 1.469650 -0.400300
v -2.129675 3.663300 -0.775701
v -1.988250 4.190175 -0.716151
v -2.421325 3.871250 -0.468851
v -1.605775 4.701025 -0.565101
v -1.524600 4.030625 -0.929351
v -0.985750 1.600425 -0.833200
v -1.242025 2.119525 -0.936500
v -0.652900 1.772150 -0.953375
v -0.744575 2.827400 -1.114100
v -1.131850 3.494775 -1.059626
v -1.481800 2.955900 -1.013325
v -0.697375 3.903750 -0.999926
v -2.039025 2.735475 -0.791375
v -2.356300 3.235975 -0.639676
v -2.395000 2.612750 -0.445000
v -1.085000 4.436825 -0.816726
v -0.598825 4.576600 -0.600951
v -1.858700 3.404175 -0.912576
v -1.725825 1.373975 -0.003100
v -2.171225 1.979600 -0.222250
v -2.529125 2.591600 -0.004300
v -0.293775 4.118400 -0.844051
v -0.293825 1.190775 -0.811550
v -0.362475 3.274425 -1.117425
v -0.645525 0.344975 -0.002700
v -0.270925 0.132525 -0.163600
v -0.351350 2.175425 -1.067650
v -1.059250 2.403375 -1.034900
v -1.609750 2.369700 -0.891475
v -1.145950 0.836225 -0.187875
v -2.152349 4.515125 -0.269976
v -2.542225 3.970625 -0.003101
v -1.641525 4.924750 -0.002701
v -2.620800 3.271725 -0.234501
v -1.070350 4.913650 -0.311851
v -0.575775 4.821000 -0.002701
v -1.960850 2.100450 -0.609475
v -0.242625 4.544175 -0.315601
v -0.263550 0.496650 -0.493750
v 1.446700 1.738750 0.717250
v 1.060750 1.087450 0.530200
v 0.602800 0.983075 0.663400
v 0.614200 0.501175 0.334500
v 1.636900 1.469650 0.392525
v 2.129675 3.663300 0.765249
v 1.988250 4.190175 0.710174
v 2.421325 3.871250 0.461074
v 1.605775 4.701025 0.559699
v 1.524600 4.030625 0.924349
v 0.985750 1.600425 0.827750
v 1.242025 2.119525 0.931725
v 0.652900 1.772150 0.949375
v 0.744575 2.827400 1.114524
v 1.131850 3.494775 1.058024
v 1.481800 2.955900 1.009624
v 0.697375 3.903750 0.995924
v 2.039025 2.735475 0.772350
v 2.356300 3.235975 0.624299
v 2.395000 2.612750 0.429875
v 1.085000 4.436825 0.811474
v 0.598825 4.576600 0.595549
v 1.858700 3.404175 0.902424
v 2.171225 1.979600 0.213225
v 0.293775 4.118400 0.838799
v 0.000000 4.282525 0.598824
v 0.000000 3.672775 1.024599
v 0.293825 1.190775 0.806300
v 0.000000 1.606725 0.944825
v 0.000000 0.756925 0.649700
v 0.362475 3.274425 1.116175
v 0.000000 2.691025 1.137750
v 0.270925 0.132525 0.158200
v 0.000000 0.204875 0.318925
v 0.351350 2.175425 1.066400
v 1.059250 2.403375 1.033325
v 1.609750 2.369700 0.881400
v 1.145950 0.836225 0.182325
v 2.152350 4.515125 0.264424
v 2.620800 3.271725 0.225474
v 1.070351 4.913650 0.306424
v 1.960850 2.100450 0.594150
v 0.242625 4.544175 0.310199
v 0.263550 0.496650 0.488350
v -1.446700 1.738750 0.717250
v -1.060750 1.087450 0.530200
v -1.636900 1.469650 0.392525
v -0.614200 0.501175 0.334500
v -0.602800 0.983075 0.663400
v -2.129700 3.663300 0.765249
v -1.988250 4.190175 0.710174
v -1.524600 4.030625 0.924349
v -1.605775 4.701025 0.559699
v -2.421325 3.871250 0.461074
v -0.985750 1.600425 0.827750
v -0.652900 1.772150 0.949375
v -1.242025 2.119525 0.931725
v -0.744575 2.827400 1.114524
v -1.131850 3.494775 1.058024
v -0.697375 3.903750 0.995924
v -1.481800 2.955900 1.009624
v -2.039025 2.735475 0.772350
v -2.356300 3.235975 0.624299
v -2.395000 2.612750 0.429875
v -1.085000 4.436825 0.811474
v -0.598825 4.576600 0.595549
v -1.858700 3.404175 0.902424
v -2.171225 1.979600 0.213075
v -0.293775 4.118400 0.838799
v -0.293825 1.190775 0.806300
v -0.362475 3.274425 1.116175
v -0.270925 0.132525 0.158200
v -0.351350 2.175425 1.066400
v -1.059250 2.403375 1.033325
v -1.609750 2.369700 0.881400
v -1.145950 0.836225 0.182325
v -2.152349 4.515125 0.264424
v -2.620800 3.271725 0.225349
v -1.070350 4.913650 0.306424
v -1.960850 2.100450 0.594150
v -0.242625 4.544175 0.310199
v -0.263550 0.496650 0.488350
vn 0.4475 -0.5333 -0.7178
vn 0.4199 -0.4105 -0.8094
vn 0.5902 -0.3993 -0.7016
vn 0.6256 -0.5773 -0.5247
vn 0.0099 0.1159 -0.9932
vn 0.0846 -0.0325 -0.9959
vn 0.0483 -0.1603 -0.9859
vn -0.0000 -0.0420 -0.9991
vn 0.9591 -0.0112 -0.2830
vn 0.8000 -0.2825 -0.5294
vn 0.6863 -0.0359 -0.7264
vn 0.7964 0.2767 -0.5378
vn -0.1388 0.5282 -0.8377
vn 0.0006 0.7615 -0.6482
vn -0.3148 0.8855 -0.3418
vn -0.2612 0.7232 -0.6393
vn 0.5124 0.1282 -0.8491
vn 0.4774 0.3866 -0.7891
vn 0.0897 -0.3409 -0.9358
vn 0.2518 -0.4443 -0.8598
vn 0.1892 -0.5441 -0.8174
vn -0.0000 -0.4261 -0.9047
vn 0.3490 0.0266 -0.9368
vn 0.2465 -0.0546 -0.9676
vn 0.1149 0.1035 -0.9880
vn 0.2015 0.2626 -0.9436
vn 0.3148 0.8855 -0.3418
vn -0.0000 1.0000 -0.0000
vn -0.0727 0.9295 -0.3615
vn -0.3717 0.9284 -0.0000
vn 0.8041 -0.5249 -0.2790
vn 0.9342 0.3568 -0.0000
vn 0.9591 -0.0112 0.2830
vn 0.9471 -0.3209 -0.0000
vn 0.1689 -0.1499 -0.9742
vn 0.4993 -0.1789 -0.8478
vn 0.3554 -0.2290 -0.9062
vn -0.0000 -0.2542 -0.9672
vn -0.0482 -0.1603 -0.9859
vn 0.2575 -0.2593 -0.9308
vn -0.0000 -0.7089 -0.7053
vn -0.1891 -0.5441 -0.8174
vn -0.0012 0.5188 -0.8549
vn 0.2829 0.7136 -0.6409
vn -0.3567 -0.8485 0.3910
vn -0.0000 -0.7089 0.7053
vn -0.1892 -0.5441 0.8174
vn -0.4589 -0.6499 0.6058
vn -0.0376 0.2993 -0.9534
vn -0.0000 0.3093 -0.9510
vn -0.0000 -1.0000 -0.0000
vn -0.6075 -0.7943 -0.0000
vn -0.3567 -0.8485 -0.3910
vn -0.0013 0.5201 0.8541
vn -0.0384 0.3025 0.9524
vn 0.1157 0.1065 0.9876
vn 0.2025 0.2649 0.9428
vn 0.2585 -0.3553 -0.8983
vn 0.8002 -0.2826 0.5290
vn 0.8041 -0.5249 0.2789
vn -0.0094 0.1156 -0.9933
vn -0.4587 -0.6500 -0.6058
vn -0.4460 -0.5344 -0.7180
vn -0.2511 -0.4444 -0.8599
vn 0.7460 -0.6659 -0.0000
vn 0.3567 -0.8485 0.3910
vn 0.6075 -0.7943 -0.0000
vn 0.6475 -0.6984 0.3048
vn 0.4589 -0.6499 0.6058
vn -0.2556 -0.3556 -0.8990
vn -0.4145 -0.4134 -0.8107
vn -0.3455 -0.2298 -0.9098
vn -0.2507 -0.2595 -0.9326
vn 0.1246 -0.2596 -0.9576
vn -0.0091 0.1189 0.9929
vn -0.0003 -0.0418 0.9991
vn 0.0093 0.1192 0.9928
vn -0.0000 0.3129 0.9498
vn 0.6475 -0.6984 -0.3048
vn 0.1388 0.5282 -0.8377
vn -0.3149 0.8855 0.3418
vn -0.1240 -0.2596 -0.9577
vn -0.0896 -0.3409 -0.9358
vn -0.0000 -0.4265 0.9045
vn 0.1892 -0.5441 0.8174
vn 0.2592 -0.3571 0.8974
vn 0.4204 -0.4117 0.8086
vn 0.3581 -0.2315 0.9045
vn 0.2591 -0.2628 0.9294
vn 0.0727 0.9296 0.3614
vn 0.3717 0.9284 -0.0000
vn 0.0727 0.9295 -0.3615
vn -0.3400 0.9404 -0.0000
vn 0.3567 -0.8485 -0.3910
vn 0.4589 -0.6499 -0.6058
vn -0.1392 0.5298 0.8366
vn -0.0002 0.7619 0.6477
vn 0.1392 0.5298 0.8366
vn -0.5887 -0.4036 -0.7004
vn -0.6247 -0.5798 -0.5231
vn -0.8045 -0.5261 -0.2756
vn -0.8028 -0.2833 -0.5247
vn 0.6850 0.6566 0.3156
vn 0.6850 0.6566 -0.3156
vn 0.3400 0.9404 -0.0000
vn 0.0380 0.2994 -0.9534
vn 0.0015 0.5190 -0.8548
vn 0.2612 0.7232 -0.6393
vn -0.0727 0.9296 0.3614
vn -0.0831 -0.0324 -0.9960
vn -0.1643 -0.1496 -0.9750
vn -0.6848 0.6573 -0.3148
vn -0.2826 0.7139 -0.6406
vn -0.4764 0.3901 -0.7880
vn -0.7968 0.2797 -0.5356
vn -0.1114 0.1044 -0.9883
vn -0.1990 0.2651 -0.9435
vn -0.9600 -0.0103 -0.2800
vn -0.9342 0.3568 0.0005
vn -0.3428 0.0325 -0.9388
vn -0.5118 0.1356 -0.8484
vn -0.6473 -0.6988 -0.3046
vn -0.4954 -0.1778 -0.8503
vn -0.6848 0.6568 0.3157
vn -0.9591 -0.0113 0.2829
vn -0.7965 0.2768 0.5375
vn -0.9471 -0.3208 0.0017
vn -0.2366 -0.0527 -0.9702
vn -0.6882 -0.0306 -0.7248
vn -0.8042 -0.5249 0.2788
vn -0.7459 -0.6660 0.0006
vn -0.6471 -0.6988 0.3049
vn -0.6257 -0.5774 0.5245
vn 0.5910 -0.3999 0.7006
vn 0.4476 -0.5334 0.7177
vn 0.6256 -0.5774 0.5246
vn 0.0901 -0.3425 0.9352
vn -0.0000 -0.2575 0.9663
vn -0.0901 -0.3425 0.9352
vn 0.3149 0.8855 0.3418
vn 0.2520 -0.4447 0.8595
vn -0.0489 -0.1636 0.9853
vn -0.0851 -0.0325 0.9958
vn -0.1708 -0.1532 0.9733
vn -0.1258 -0.2630 0.9566
vn -0.2613 0.7235 0.6389
vn -0.4479 -0.5329 0.7180
vn -0.2520 -0.4447 0.8595
vn 0.0851 -0.0325 0.9958
vn 0.3521 0.0278 0.9356
vn 0.5143 0.1280 0.8480
vn 0.4779 0.3873 0.7884
vn 0.2829 0.7139 0.6406
vn 0.7965 0.2768 0.5376
vn 0.5019 -0.1796 0.8461
vn 0.6870 -0.0354 0.7257
vn 0.0489 -0.1636 0.9853
vn 0.1258 -0.2630 0.9566
vn 0.2497 -0.0550 0.9668
vn 0.1708 -0.1532 0.9733
vn 0.2613 0.7235 0.6389
vn -0.2592 -0.3571 0.8974
vn -0.4204 -0.4117 0.8086
vn 0.0013 0.5201 0.8541
vn -0.2829 0.7139 0.6406
vn -0.4779 0.3873 0.7884
vn -0.2025 0.2649 0.9428
vn -0.6871 -0.0354 0.7257
vn -0.5138 0.1289 0.8482
vn -0.5910 -0.3999 0.7005
vn -0.8004 -0.2827 0.5286
vn -0.3520 0.0278 0.9356
vn -0.2497 -0.0550 0.9668
vn -0.1157 0.1065 0.9876
vn 0.0383 0.3022 0.9525
vn -0.3581 -0.2315 0.9045
vn -0.2591 -0.2628 0.9294
vn -0.5019 -0.1796 0.8461
vt 0.102000 0.155900
vt 0.140400 0.091000
vt 0.726300 0.579000
vt 0.006700 0.853200
vt 0.081200 0.128700
vt 0.187800 0.027800
vt 0.113300 0.846600
vt 0.186000 0.080600
vt 0.034000 0.347500
vt 0.048100 0.400000
vt 0.094200 0.384100
vt 0.085000 0.457500
vt 0.058300 0.639600
vt 0.000000 0.370000
vt 0.484900 0.585300
vt 0.147900 0.142100
vt 0.181000 0.159200
vt 0.122400 0.193800
vt 0.171900 0.264300
vt 0.133300 0.330700
vt 0.176600 0.371500
vt 0.098500 0.277100
vt 0.043000 0.255100
vt 0.007500 0.304900
vt 0.550100 0.601900
vt 0.612100 0.582200
vt 0.138000 0.424500
vt 0.189500 0.440500
vt 0.162800 0.636400
vt 0.061000 0.321700
vt 0.735400 0.539100
vt 0.675100 0.560600
vt 0.614200 0.539100
vt 0.216800 0.392800
vt 0.246000 0.348500
vt 0.246000 0.407000
vt 0.219400 0.636300
vt 0.216800 0.101300
vt 0.246000 0.058100
vt 0.246000 0.142700
vt 0.209900 0.308800
vt 0.246000 0.250700
vt 0.107200 0.813300
vt 0.144500 0.829300
vt 0.171500 0.813300
vt 0.171500 0.845200
vt 0.246000 0.000000
vt 0.211000 0.199400
vt 0.140600 0.222100
vt 0.085700 0.218700
vt 0.057700 0.831800
vt 0.791700 0.557600
vt 0.001900 0.670000
vt 0.418000 0.566100
vt 0.055900 0.696900
vt 0.476900 0.539100
vt 0.546500 0.561900
vt 0.112800 0.666100
vt 0.162000 0.696900
vt 0.048200 0.190800
vt 0.664200 0.599100
vt 0.195200 0.665700
vt 0.219400 0.696900
vt 0.219800 0.032200
vt 0.390100 0.155900
vt 0.351600 0.091000
vt 0.306000 0.080600
vt 0.229700 0.846600
vt 0.304200 0.027800
vt 0.336300 0.853400
vt 0.313000 0.499400
vt 0.410900 0.128700
vt 0.458100 0.347500
vt 0.444000 0.400000
vt 0.492100 0.370000
vt 0.071600 0.493100
vt 0.380400 0.639600
vt 0.407100 0.457500
vt 0.397800 0.384100
vt 0.344200 0.142100
vt 0.369700 0.193800
vt 0.311000 0.159200
vt 0.320200 0.264300
vt 0.358700 0.330700
vt 0.393600 0.277100
vt 0.315500 0.371500
vt 0.449100 0.255100
vt 0.136800 0.475600
vt 0.484600 0.304900
vt 0.198800 0.495400
vt 0.354100 0.424500
vt 0.302500 0.440500
vt 0.275900 0.636400
vt 0.431100 0.321700
vt 0.322100 0.539400
vt 0.261800 0.517500
vt 0.200900 0.539300
vt 0.275300 0.392800
vt 0.275300 0.101300
vt 0.282100 0.308800
vt 0.235800 0.813300
vt 0.198500 0.829300
vt 0.281000 0.199400
vt 0.351500 0.222100
vt 0.406300 0.218700
vt 0.285300 0.831800
vt 0.378300 0.520900
vt 0.004600 0.512500
vt 0.436800 0.670000
vt 0.063500 0.539400
vt 0.382800 0.696900
vt 0.133100 0.516300
vt 0.325900 0.666100
vt 0.276700 0.696900
vt 0.250900 0.478400
vt 0.443800 0.190800
vt 0.243500 0.665700
vt 0.272300 0.032200
vt 0.898000 0.155900
vt 0.859600 0.091000
vt 0.814000 0.080600
vt 0.113300 0.780000
vt 0.812200 0.027800
vt 0.006700 0.773400
vt 0.726300 0.499300
vt 0.918800 0.128700
vt 0.966000 0.347500
vt 0.951900 0.400000
vt 1.000000 0.370000
vt 0.484900 0.493000
vt 0.915000 0.457500
vt 0.058300 0.754200
vt 0.905800 0.384100
vt 0.852100 0.142100
vt 0.877600 0.193800
vt 0.819000 0.159200
vt 0.828100 0.264300
vt 0.866700 0.330700
vt 0.901500 0.277100
vt 0.823400 0.371500
vt 0.957000 0.255100
vt 0.992500 0.304900
vt 0.550100 0.476400
vt 0.612100 0.496100
vt 0.862000 0.424500
vt 0.162800 0.757400
vt 0.810500 0.440500
vt 0.939000 0.321700
vt 0.675100 0.517600
vt 0.783200 0.392800
vt 0.219400 0.757500
vt 0.754000 0.407000
vt 0.754000 0.348500
vt 0.783200 0.101300
vt 0.754000 0.142700
vt 0.754000 0.058100
vt 0.790100 0.308800
vt 0.754000 0.250700
vt 0.144500 0.797300
vt 0.171500 0.781400
vt 0.754000 0.000000
vt 0.789000 0.199400
vt 0.859400 0.222100
vt 0.914300 0.218700
vt 0.791700 0.520700
vt 0.057700 0.794800
vt 0.001900 0.723800
vt 0.418000 0.512200
vt 0.546500 0.516400
vt 0.112800 0.727700
vt 0.664200 0.479200
vt 0.951800 0.190800
vt 0.195200 0.728100
vt 0.780200 0.032200
vt 0.609900 0.155900
vt 0.648400 0.091000
vt 0.589100 0.128700
vt 0.313000 0.579300
vt 0.336300 0.773400
vt 0.229700 0.780000
vt 0.695800 0.027800
vt 0.694000 0.080600
vt 0.541900 0.347500
vt 0.556000 0.400000
vt 0.602200 0.384100
vt 0.592900 0.457500
vt 0.380400 0.754200
vt 0.507900 0.370000
vt 0.071600 0.585600
vt 0.655800 0.142100
vt 0.689000 0.159200
vt 0.630300 0.193800
vt 0.679800 0.264300
vt 0.641300 0.330700
vt 0.684500 0.371500
vt 0.606400 0.277100
vt 0.550900 0.255100
vt 0.515400 0.304900
vt 0.136800 0.602100
vt 0.198800 0.582500
vt 0.645900 0.424500
vt 0.275900 0.757400
vt 0.697500 0.440500
vt 0.568900 0.321700
vt 0.261800 0.560900
vt 0.724700 0.392800
vt 0.724700 0.101300
vt 0.717900 0.308800
vt 0.198500 0.797300
vt 0.719000 0.199400
vt 0.648500 0.222100
vt 0.593700 0.218700
vt 0.378300 0.557900
vt 0.285300 0.794800
vt 0.436800 0.723800
vt 0.004600 0.566300
vt 0.133100 0.562100
vt 0.325900 0.727700
vt 0.250900 0.599400
vt 0.556200 0.190800
vt 0.243500 0.728100
vt 0.727700 0.032200
s 1
usemtl Heart
f 2/2/1 1/1/2 49/60/3 3/3/4
f 33/41/5 14/19/6 39/48/7 34/42/8
f 46/57/9 20/26/10 19/24/11 10/14/12
f 27/34/13 29/36/14 50/62/15 22/29/16
f 10/15/12 19/25/11 6/9/17 7/10/18
f 30/38/19 5/8/20 52/64/21 31/39/22
f 23/30/23 17/22/24 15/20/25 8/11/26
f 7/10/18 6/9/17 23/30/23 8/11/26
f 50/62/15 29/36/14 95/117/27 51/63/28
f 47/58/29 22/28/16 50/62/15 48/59/30
f 49/60/3 20/26/10 25/32/31 3/4/4
f 46/57/9 45/56/32 136/169/33 26/33/34
f 17/22/24 40/49/35 14/19/6 15/20/25
f 23/30/23 18/23/36 41/50/37 17/22/24
f 39/48/7 32/40/38 84/103/39 34/42/8
f 41/50/37 13/18/40 40/49/35 17/22/24
f 52/64/21 38/46/41 96/118/42 31/39/22
f 25/32/31 20/26/10 46/57/9 26/33/34
f 21/27/43 22/28/16 47/58/29 9/13/44
f 168/209/45 130/160/46 178/222/47 144/181/48
f 20/26/10 49/60/3 18/23/36 19/24/11
f 19/25/11 18/23/36 23/30/23 6/9/17
f 27/34/13 16/21/49 33/41/5 28/35/50
f 27/34/13 22/29/16 21/27/43 16/21/49
f 37/45/51 168/209/45 82/101/52 83/102/53
f 117/145/54 113/140/55 111/138/56 106/133/57
f 11/16/58 13/18/40 41/50/37 1/1/2
f 136/169/33 116/144/59 120/149/60 26/33/34
f 81/100/61 28/35/50 33/41/5 34/42/8
f 96/118/42 56/68/62 54/66/63 55/67/64
f 26/33/34 120/149/60 24/31/65 25/32/31
f 129/159/66 35/43/67 134/165/68 100/123/69
f 63/80/70 53/65/71 86/105/72 64/81/73
f 30/38/19 32/40/38 39/48/7 12/17/74
f 167/208/75 128/158/76 127/157/77 123/153/78
f 25/32/31 24/31/65 42/51/79 3/5/4
f 79/98/80 29/37/14 27/34/13 28/35/50
f 139/173/81 48/59/30 50/62/15 51/63/28
f 65/82/82 80/99/83 55/67/64 63/80/70
f 126/156/84 178/222/47 130/160/46 140/174/85
f 107/134/86 97/119/87 133/164/88 108/135/89
f 175/218/90 93/114/91 92/113/92 90/111/93
f 36/44/94 38/46/41 52/64/21 4/6/95
f 83/102/53 38/47/41 36/44/94 37/45/51
f 15/20/25 14/19/6 33/41/5 16/21/49
f 121/150/96 122/151/97 165/206/98 123/153/78
f 94/116/99 57/72/100 77/96/101 72/90/102
f 41/50/37 18/23/36 49/61/3 1/1/2
f 42/51/79 24/31/65 134/166/68 35/43/67
f 21/27/43 8/11/26 15/20/25 16/21/49
f 135/167/103 45/56/32 43/54/104 44/55/105
f 79/98/80 69/86/106 73/91/107 74/93/108
f 94/115/99 53/65/71 54/66/63 57/70/100
f 96/118/42 38/47/41 83/102/53 56/68/62
f 46/57/9 10/15/12 43/53/104 45/56/32
f 137/170/109 44/55/105 47/58/29 48/59/30
f 7/10/18 9/12/44 43/53/104 10/15/12
f 43/54/104 9/12/44 47/58/29 44/55/105
f 40/49/35 13/18/40 11/16/58 12/17/74
f 4/6/95 42/51/79 35/43/67 36/44/94
f 66/83/110 84/103/39 65/82/82 85/104/111
f 88/108/112 61/77/113 59/74/114 60/76/115
f 73/91/107 69/86/106 67/84/116 62/79/117
f 31/39/22 96/118/42 55/67/64 80/99/83
f 2/2/1 4/7/95 52/64/21 5/8/20
f 91/112/118 89/110/119 88/109/112 60/75/115
f 75/94/120 58/73/121 59/74/114 62/79/117
f 69/86/106 81/100/61 66/83/110 67/84/116
f 54/66/63 56/69/62 87/106/122 57/71/100
f 93/114/91 95/117/27 74/92/108 92/113/92
f 86/105/72 53/65/71 94/116/99 70/87/123
f 85/104/111 65/82/82 63/80/70 64/81/73
f 90/111/93 92/113/92 61/78/113 88/108/112
f 84/103/39 32/40/38 80/99/83 65/82/82
f 173/215/124 89/110/119 174/217/125 150/189/126
f 91/112/118 72/90/102 77/96/101 78/97/127
f 73/91/107 62/79/117 59/74/114 61/77/113
f 54/66/63 53/65/71 63/80/70 55/67/64
f 34/42/8 84/103/39 66/83/110 81/100/61
f 86/105/72 70/87/123 75/94/120 68/85/128
f 75/94/120 62/79/117 67/84/116 68/85/128
f 67/84/116 66/83/110 85/104/111 68/85/128
f 58/73/121 75/94/120 70/87/123 71/88/129
f 164/205/130 76/95/131 172/214/132 143/177/133
f 91/112/118 60/76/115 71/89/129 72/90/102
f 95/117/27 29/37/14 79/98/80 74/92/108
f 138/171/134 97/119/87 98/120/135 101/124/136
f 124/154/137 125/155/138 166/207/139 126/156/84
f 71/88/129 70/87/123 94/116/99 72/90/102
f 177/221/140 51/63/28 95/117/27 93/114/91
f 86/105/72 68/85/128 85/104/111 64/81/73
f 59/74/114 58/73/121 71/89/129 60/76/115
f 174/217/125 89/110/119 91/112/118 78/97/127
f 28/35/50 81/100/61 69/86/106 79/98/80
f 77/96/101 76/95/131 164/205/130 78/97/127
f 140/174/85 100/122/69 98/120/135 99/121/141
f 87/106/122 82/101/52 172/214/132 76/95/131
f 168/209/45 37/45/51 129/159/66 130/161/46
f 57/72/100 87/106/122 76/95/131 77/96/101
f 169/210/142 154/193/143 170/211/144 152/191/145
f 88/109/112 89/110/119 173/216/124 90/111/93
f 42/52/79 4/7/95 2/2/1 3/5/4
f 138/172/134 101/126/136 120/149/60 116/144/59
f 83/102/53 82/101/52 87/107/122 56/69/62
f 117/145/54 118/146/146 121/150/96 113/140/55
f 142/176/147 144/180/48 178/222/47 145/182/148
f 113/140/55 127/157/77 110/137/149 111/138/56
f 119/148/150 102/127/151 103/128/152 106/133/57
f 92/113/92 74/93/108 73/91/107 61/78/113
f 126/156/84 140/174/85 99/121/141 124/154/137
f 98/120/135 97/119/87 107/134/86 99/121/141
f 44/55/105 137/170/109 105/131/153 135/168/103
f 48/59/30 139/173/81 118/147/146 137/170/109
f 137/170/109 118/146/146 117/145/54 105/131/153
f 136/169/33 45/56/32 135/167/103 104/129/154
f 133/164/88 97/119/87 138/172/134 114/141/155
f 103/128/152 102/127/151 115/142/156 104/130/154
f 131/162/157 125/155/138 124/154/137 109/136/158
f 117/145/54 106/133/57 103/128/152 105/132/153
f 144/180/48 142/176/147 143/177/133 172/213/132
f 128/158/76 131/162/157 110/137/149 127/157/77
f 119/148/150 106/133/57 111/138/56 112/139/159
f 110/137/149 131/162/157 109/136/158 132/163/160
f 111/138/56 110/137/149 132/163/160 112/139/159
f 136/169/33 104/130/154 115/142/156 116/144/59
f 102/127/151 119/148/150 114/141/155 115/143/156
f 128/158/76 169/210/142 125/155/138 131/162/157
f 123/153/78 127/157/77 113/140/55 121/150/96
f 167/208/75 154/193/143 169/210/142 128/158/76
f 133/164/88 112/139/159 132/163/160 108/135/89
f 165/206/98 122/152/97 177/221/140 162/202/161
f 121/150/96 118/147/146 139/173/81 122/151/97
f 80/99/83 32/40/38 30/38/19 31/39/22
f 140/174/85 130/161/46 129/159/66 100/122/69
f 51/63/28 177/221/140 122/152/97 139/173/81
f 166/207/139 145/182/148 178/222/47 126/156/84
f 11/16/58 5/8/20 30/38/19 12/17/74
f 36/44/94 35/43/67 129/159/66 37/45/51
f 145/182/148 151/190/162 141/175/163 142/176/147
f 133/164/88 114/141/155 119/148/150 112/139/159
f 98/120/135 100/123/69 134/166/68 101/125/136
f 144/181/48 172/214/132 82/101/52 168/209/45
f 132/163/160 109/136/158 107/134/86 108/135/89
f 166/207/139 125/155/138 169/210/142 152/191/145
f 115/143/156 114/141/155 138/172/134 116/144/59
f 161/201/164 149/187/165 147/184/166 148/185/167
f 151/190/162 145/182/148 166/207/139 152/191/145
f 150/189/126 159/199/168 146/183/169 147/184/166
f 176/220/170 143/178/133 142/176/147 141/175/163
f 174/217/125 160/200/171 159/198/168 150/188/126
f 173/215/124 150/189/126 147/184/166 149/186/165
f 163/204/172 157/196/173 155/194/174 148/185/167
f 173/216/124 149/186/165 175/218/90 90/111/93
f 165/206/98 162/202/161 161/201/164 156/195/175
f 171/212/176 141/175/163 151/190/162 153/192/177
f 160/200/171 176/220/170 158/197/178 159/198/168
f 165/206/98 156/195/175 167/208/75 123/153/78
f 174/217/125 78/97/127 164/205/130 160/200/171
f 171/212/176 157/196/173 163/204/172 158/197/178
f 175/218/90 162/203/161 177/221/140 93/114/91
f 171/212/176 158/197/178 176/219/170 141/175/163
f 175/218/90 149/187/165 161/201/164 162/203/161
f 147/184/166 146/183/169 163/204/172 148/185/167
f 163/204/172 146/183/169 159/199/168 158/197/178
f 160/200/171 164/205/130 143/179/133 176/220/170
f 171/212/176 153/192/177 170/211/144 157/196/173
f 155/194/174 154/193/143 167/208/75 156/195/175
f 135/168/103 105/132/153 103/128/152 104/130/154
f 134/166/68 24/31/65 120/149/60 101/126/136
f 5/8/20 11/16/58 1/1/2 2/2/1
f 161/201/164 148/185/167 155/194/174 156/195/175
f 157/196/173 170/211/144 154/193/143 155/194/174
f 109/136/158 124/154/137 99/121/141 107/134/86
f 170/211/144 153/192/177 151/190/162 152/191/145
f 21/27/43 9/13/44 7/10/18 8/11/26
f 39/48/7 14/19/6 40/49/35 12/17/74
