# Blender 3.4.1
# www.blender.org
mtllib key4.mtl
o KEY
v -0.195680 0.079963 0.212964
v -0.195680 -0.079963 0.212964
v -0.195680 0.093322 0.604324
v -0.195680 -0.093322 0.604324
v 0.195680 0.093322 0.604324
v 0.195680 -0.093322 0.604324
v 0.195680 0.079963 0.212964
v 0.195680 -0.079963 0.212964
v 0.150583 -0.061535 0.258061
v -0.150583 -0.061535 0.258061
v 0.150583 -0.061535 0.559227
v -0.150583 -0.061535 0.559227
v 0.150583 0.061535 0.258061
v -0.150583 0.061535 0.258061
v -0.150583 0.061535 0.559227
v 0.150583 0.061535 0.559227
v 0.013858 -0.100354 0.654221
v 0.013858 0.100354 0.654221
v 0.010664 0.077226 0.597625
v 0.010664 -0.077226 0.597625
v 0.001790 -0.077226 0.219663
v 0.002326 -0.100354 0.163067
v 0.002326 0.100354 0.163067
v 0.001790 0.077226 0.219663
v 0.188981 -0.077226 0.407532
v 0.245577 -0.100354 0.407199
v 0.245577 0.100354 0.407199
v 0.188981 0.077226 0.407532
v -0.188981 -0.077226 0.408922
v -0.245577 -0.100354 0.409005
v -0.245577 0.100354 0.409005
v -0.188981 0.077226 0.408922
v 0.049188 0.079963 0.133088
v 0.049188 -0.079963 0.133088
v 0.000585 -0.100354 0.125517
v 0.000585 0.100354 0.125517
v -0.049188 -0.079963 0.133088
v -0.049188 0.079963 0.133088
v 0.049188 0.079963 -0.597803
v 0.049188 -0.079963 -0.597803
v 0.000585 -0.100354 -0.605374
v 0.000585 0.100354 -0.605374
v -0.049188 -0.079963 -0.597803
v -0.049188 0.079963 -0.597803
v 0.000585 -0.100354 -0.522006
v 0.049188 -0.079963 -0.514435
v 0.049188 0.079963 -0.514435
v 0.000585 0.100354 -0.522006
v -0.049188 0.079963 -0.514435
v -0.049188 -0.079963 -0.514435
v 0.000585 -0.100354 -0.457353
v 0.049188 -0.079963 -0.449783
v 0.049188 0.079963 -0.449783
v 0.000585 0.100354 -0.457353
v -0.049188 0.079963 -0.449783
v -0.049188 -0.079963 -0.449783
v 0.000585 -0.100354 -0.340849
v 0.049188 -0.079963 -0.333278
v 0.049188 0.079963 -0.333278
v 0.000585 0.100354 -0.340849
v -0.049188 0.079963 -0.333278
v -0.049188 -0.079963 -0.333278
v 0.000585 -0.100354 -0.271735
v 0.049188 -0.079963 -0.264164
v 0.049188 0.079963 -0.264164
v 0.000585 0.100354 -0.271735
v -0.049188 0.079963 -0.264164
v -0.049188 -0.079963 -0.264164
v 0.257166 -0.079963 -0.449783
v 0.257166 0.079963 -0.449783
v 0.257166 -0.079963 -0.514435
v 0.257166 0.079963 -0.514435
v 0.257166 -0.079963 -0.264164
v 0.257166 0.079963 -0.264164
v 0.257166 -0.079963 -0.333278
v 0.257166 0.079963 -0.333278
v 0.205415 0.008648 0.627433
v 0.257870 0.009410 0.409562
v 0.205415 0.007410 0.220477
v 0.051413 0.007410 0.137418
v 0.051413 0.007410 -0.275664
v 0.270054 0.007410 -0.275664
v 0.270054 0.007410 -0.347532
v 0.051413 0.007410 -0.347532
v 0.051412 0.007410 -0.468680
v 0.270054 0.007410 -0.468680
v 0.270054 0.007410 -0.535909
v 0.051412 0.007410 -0.535909
v 0.051412 0.007410 -0.622598
v 0.000318 0.009410 -0.630471
v -0.052007 0.007410 -0.622598
v -0.052007 0.007410 -0.535909
v -0.052007 0.007410 -0.468680
v -0.052007 0.007410 -0.347532
v -0.052007 0.007410 -0.275664
v -0.052007 0.007410 0.137418
v -0.206009 0.007410 0.220477
v -0.258465 0.009410 0.411440
v -0.206009 0.008648 0.627433
v 0.014271 0.009410 0.679318
v 0.001630 0.013129 0.236516
v 0.137155 0.010677 0.271489
v 0.172128 0.013129 0.407631
v 0.137155 0.010677 0.545799
v 0.009713 0.013129 0.580772
v -0.137155 0.010677 0.545799
v -0.172128 0.013129 0.408897
v -0.137155 0.010677 0.271489
vn -0.9580 0.1202 -0.2603
vn -0.9653 -0.0013 -0.2611
vn -0.9653 0.0016 -0.2611
vn -0.2265 0.2697 0.9359
vn -0.2344 -0.0016 0.9721
vn -0.2344 0.0010 0.9721
vn 0.9585 0.1549 0.2393
vn 0.9703 -0.0016 0.2417
vn 0.9703 0.0008 0.2417
vn 0.2094 0.2877 -0.9346
vn 0.2067 -0.0160 -0.9783
vn 0.2079 0.0163 -0.9780
vn 0.1042 -0.9899 0.0962
vn 0.0274 -0.9511 0.3076
vn -0.0000 -0.9257 0.3783
vn -0.4548 -0.8888 -0.0572
vn 0.0544 -0.8878 -0.4570
vn 0.3783 -0.9257 -0.0000
vn 0.0274 0.9511 0.3077
vn 0.1042 0.9899 0.0962
vn -0.0000 0.9257 0.3783
vn 0.3783 0.9257 -0.0000
vn 0.0544 0.8878 -0.4570
vn -0.4548 0.8888 -0.0572
vn -0.6720 0.3158 0.6698
vn 0.0003 0.2795 0.9602
vn 0.0001 0.0070 1.0000
vn -0.7084 -0.0052 0.7058
vn -0.9602 0.2795 -0.0002
vn -1.0000 0.0070 -0.0001
vn -0.7295 -0.0054 -0.6839
vn -0.6897 0.3157 -0.6516
vn 0.9602 0.2795 -0.0000
vn 1.0000 0.0070 -0.0000
vn 0.7043 -0.0051 0.7099
vn 0.6685 0.3158 0.6733
vn 0.6539 0.3157 -0.6876
vn 0.0020 0.2794 -0.9602
vn 0.0006 0.0070 -1.0000
vn 0.6867 -0.0049 -0.7269
vn 0.2588 0.2696 0.9276
vn 0.2677 0.0011 0.9635
vn 0.2677 -0.0017 0.9635
vn -0.0611 0.8901 -0.4517
vn -0.0611 -0.8901 -0.4517
vn -0.0269 -0.9511 0.3077
vn -0.0984 -0.9892 0.1086
vn -0.2049 0.2892 -0.9351
vn -0.2035 0.0160 -0.9789
vn -0.2023 -0.0158 -0.9792
vn -0.0984 0.9892 0.1086
vn -0.0269 0.9511 0.3077
vn -0.3783 -0.9257 -0.0000
vn 0.9583 0.1133 -0.2625
vn 0.9648 0.0015 -0.2631
vn 0.9648 -0.0013 -0.2631
vn -0.3783 0.9257 -0.0000
vn 0.4544 -0.8889 -0.0576
vn -0.9569 0.1616 0.2412
vn -0.9698 0.0008 0.2440
vn -0.9698 -0.0016 0.2439
vn 0.4544 0.8889 -0.0576
vn 0.4764 -0.0324 -0.8786
vn 0.4767 0.0001 -0.8791
vn 0.4767 -0.0001 -0.8791
vn 0.2244 -0.9324 -0.2833
vn 0.1041 0.9899 0.0962
vn 0.0274 0.9511 0.3076
vn 0.2244 0.9324 -0.2833
vn -0.0983 -0.9892 0.1086
vn -0.0270 -0.9511 0.3077
vn -0.2164 -0.9391 -0.2668
vn -0.4767 0.0001 -0.8791
vn -0.4765 -0.0285 -0.8787
vn -0.4767 -0.0000 -0.8791
vn -0.2164 0.9391 -0.2668
vn 0.9995 0.0306 -0.0000
vn 1.0000 -0.0000 -0.0000
vn 1.0000 -0.0001 -0.0000
vn 0.3869 -0.9221 -0.0000
vn 0.3869 0.9221 -0.0000
vn -0.3791 -0.9254 -0.0000
vn -1.0000 -0.0001 -0.0000
vn -0.9992 0.0388 -0.0000
vn -1.0000 -0.0000 -0.0000
vn -0.3791 0.9254 -0.0000
vn 1.0000 0.0002 -0.0000
vn 1.0000 -0.0003 -0.0000
vn -1.0000 -0.0003 -0.0000
vn 0.9846 0.1749 -0.0000
vn 1.0000 0.0008 -0.0000
vn 1.0000 -0.0011 -0.0000
vn 1.0000 0.0001 -0.0000
vn 1.0000 -0.0002 -0.0000
vn 1.0000 0.0005 -0.0000
vn 1.0000 -0.0007 -0.0000
vn -0.0000 -0.2520 0.9677
vn -0.0000 -0.0001 1.0000
vn -0.0000 0.0010 1.0000
vn -0.0000 -1.0000 -0.0000
vn -0.0000 0.0002 -1.0000
vn -0.0000 0.2838 -0.9589
vn -0.0000 -0.0011 -1.0000
vn -0.0000 1.0000 -0.0000
vn -0.0000 -0.1566 0.9877
vn -0.0000 0.0006 1.0000
vn -0.0000 0.0001 -1.0000
vn -0.0000 0.1928 -0.9812
vn -0.0000 -0.0007 -1.0000
vn 0.9624 -0.1289 0.2393
vn 0.9607 -0.0943 -0.2610
vn 0.4765 0.0269 -0.8788
vn 0.9997 -0.0255 -0.0000
vn -0.0000 0.1305 0.9914
vn 0.9893 -0.1459 -0.0000
vn -0.0000 -0.1610 -0.9870
vn -0.0000 0.2114 0.9774
vn -0.0000 -0.2387 -0.9711
vn 0.1920 -0.2426 -0.9509
vn -0.1878 -0.2437 -0.9515
vn -0.9995 -0.0322 -0.0000
vn -0.4765 0.0237 -0.8788
vn -0.9607 -0.1001 -0.2588
vn -0.9611 -0.1345 0.2412
vn -0.2276 -0.2263 0.9471
vn 0.2600 -0.2262 0.9387
vn 0.0004 -0.2023 0.9793
vn -0.6896 -0.2283 0.6873
vn -0.9793 -0.2023 -0.0002
vn -0.7079 -0.2281 -0.6685
vn 0.0023 -0.2023 -0.9793
vn 0.6708 -0.2283 -0.7056
vn 0.9793 -0.2023 -0.0001
vn 0.6860 -0.2283 0.6909
vn 0.6860 -0.2284 0.6909
vt 0.375000 0.000000
vt 0.375000 1.000000
vt 0.625000 1.000000
vt 0.625000 0.000000
vt 0.375000 0.250000
vt 0.625000 0.250000
vt 0.375000 0.500000
vt 0.125000 0.250000
vt 0.875000 0.250000
vt 0.625000 0.500000
vt 0.125000 0.000000
vt 0.375000 0.750000
vt 0.875000 0.000000
vt 0.625000 0.750000
vt 0.875000 0.000000
vt 0.000000 1.000000
vt 0.000000 0.000000
vt 0.625000 0.000000
vt 1.000000 0.000000
vt 1.000000 1.000000
vt 0.875000 0.250000
vt 1.000000 0.000000
vt 1.000000 1.000000
vt 0.625000 0.250000
vt 0.000000 1.000000
vt 0.000000 0.000000
vt 0.000000 0.000000
vt 0.125000 0.000000
vt 0.000000 1.000000
vt 1.000000 1.000000
vt 0.375000 0.000000
vt 1.000000 0.000000
vt 0.000000 0.000000
vt 0.375000 0.250000
vt 0.000000 1.000000
vt 1.000000 1.000000
vt 0.125000 0.250000
vt 1.000000 0.000000
vt 0.757054 0.250000
vt 0.625000 0.382054
vt 0.375000 0.382054
vt 0.242946 0.250000
vt 0.242946 0.250000
vt 0.528215 0.000000
vt 0.757054 0.250000
vt 0.528215 1.000000
vt 0.751184 0.000000
vt 0.495264 1.000000
vt 0.751184 0.000000
vt 0.625000 0.873816
vt 0.248816 0.000000
vt 0.375000 0.873816
vt 0.248816 0.000000
vt 0.495264 0.000000
vt 0.875000 0.124264
vt 0.497058 0.000000
vt 0.875000 0.124264
vt 0.625000 0.625736
vt 0.375000 0.625736
vt 0.125000 0.124264
vt 0.125000 0.124264
vt 0.497058 1.000000
vt 0.625000 0.125184
vt 0.499266 0.000000
vt 0.625000 0.125184
vt 0.375000 0.125184
vt 0.375000 0.125184
vt 0.499266 1.000000
vt 0.375000 0.750000
vt 0.625000 0.750000
vt 0.625000 0.873816
vt 0.375000 0.873816
vt 0.625000 1.000000
vt 0.375000 1.000000
vt 0.375000 0.750000
vt 0.625000 0.750000
vt 0.625000 0.873816
vt 0.375000 0.873816
vt 0.625000 1.000000
vt 0.375000 1.000000
vt 0.625000 0.873816
vt 0.625000 0.750000
vt 0.375000 0.750000
vt 0.375000 0.873816
vt 0.375000 1.000000
vt 0.625000 1.000000
vt 0.625000 0.873816
vt 0.625000 0.750000
vt 0.375000 0.750000
vt 0.375000 0.873816
vt 0.375000 1.000000
vt 0.625000 1.000000
vt 0.625000 0.873816
vt 0.625000 0.750000
vt 0.375000 0.750000
vt 0.375000 0.873816
vt 0.375000 1.000000
vt 0.625000 1.000000
vt 0.625000 0.873816
vt 0.625000 0.750000
vt 0.375000 0.750000
vt 0.375000 0.873816
vt 0.375000 1.000000
vt 0.625000 1.000000
vt 0.625000 0.750000
vt 0.375000 0.750000
vt 0.625000 0.750000
vt 0.375000 0.750000
vt 0.625000 0.750000
vt 0.375000 0.750000
vt 0.625000 0.750000
vt 0.375000 0.750000
vt 0.488340 0.500000
vt 0.488340 0.625736
vt 0.488340 0.750000
vt 0.488340 0.750000
vt 0.488340 0.750000
vt 0.488340 0.750000
vt 0.488340 0.750000
vt 0.488340 0.750000
vt 0.488340 0.750000
vt 0.488340 0.750000
vt 0.488340 0.750000
vt 0.488340 0.750000
vt 0.488340 0.750000
vt 0.488340 0.873816
vt 0.488340 1.000000
vt 0.488340 1.000000
vt 0.488340 1.000000
vt 0.488340 1.000000
vt 0.488340 1.000000
vt 0.488340 1.000000
vt 0.488340 1.000000
vt 0.488340 0.000000
vt 0.488340 0.125184
vt 0.488340 0.250000
vt 0.488340 0.382054
vt 0.495264 0.414221
vt 0.000000 0.414221
vt 0.000000 0.585779
vt 0.497058 0.585779
vt 1.000000 0.585779
vt 1.000000 0.414221
vt 0.528215 0.414221
vt 0.000000 0.414221
vt 0.000000 0.585779
vt 0.499266 0.585779
vt 1.000000 0.585779
vt 1.000000 0.414221
s 1
usemtl initialShadingGroup
f 1/1/1 97/134/2 98/135/3 31/66/1
f 3/5/4 99/136/5 100/137/6 18/41/4
f 5/7/7 77/113/8 78/114/9 27/59/7
f 39/75/10 89/125/11 90/126/12 42/78/10
f 22/49/13 8/13/14 9/15/15 21/47/15
s 0
f 26/57/16 6/9/16 11/21/16 25/55/16
f 20/45/17 17/39/17 4/6/17 12/24/17
f 30/65/18 2/4/18 10/18/18 29/63/18
s 1
f 7/11/19 23/51/20 24/53/21 13/28/21
s 0
f 1/1/22 31/66/22 32/67/22 14/31/22
f 3/5/23 18/42/23 19/43/23 15/34/23
f 5/8/24 27/60/24 28/61/24 16/37/24
s 1
f 13/27/25 24/54/26 101/138/27 102/139/28
f 28/62/29 103/141/30 104/142/31 16/36/32
f 32/68/33 107/147/34 108/148/35 14/30/36
f 15/33/37 19/44/38 105/144/39 106/145/40
f 18/41/41 100/137/42 77/113/43 5/7/41
s 0
f 19/43/44 18/42/44 5/8/44 16/37/44
s 1
f 105/144/39 19/44/38 16/38/32 104/143/31
s 0
f 6/9/45 17/39/45 20/45/45 11/21/45
s 1
f 2/4/46 22/49/47 21/47/15 10/18/15
f 42/78/48 90/126/49 91/127/50 44/80/48
f 24/53/21 23/51/51 1/1/52 14/31/21
f 108/149/35 101/138/27 24/54/26 14/32/36
s 0
f 8/13/53 26/57/53 25/55/53 9/15/53
s 1
f 27/59/54 78/114/55 79/115/56 7/12/54
s 0
f 28/61/57 27/60/57 7/11/57 13/28/57
s 1
f 102/140/28 103/141/30 28/62/29 13/29/25
s 0
f 4/6/58 30/65/58 29/63/58 12/24/58
s 1
f 31/66/59 98/135/60 99/136/61 3/5/59
s 0
f 32/67/62 31/66/62 3/5/62 15/34/62
s 1
f 106/146/40 107/147/34 32/68/33 15/35/37
f 7/12/63 79/115/64 80/116/65 33/69/63
f 8/14/14 22/50/13 35/71/66 34/70/66
f 23/52/67 7/12/68 33/69/69 36/72/69
f 22/50/70 2/3/71 37/73/72 35/71/72
f 97/133/73 1/2/74 38/74/74 96/132/75
f 1/2/52 23/52/51 36/72/76 38/74/76
f 33/69/77 80/116/78 81/117/79 65/101/77
s 0
f 34/70/80 35/71/80 63/99/80 64/100/80
f 36/72/81 33/69/81 65/101/81 66/102/81
f 35/71/82 37/73/82 68/104/82 63/99/82
s 1
f 96/132/83 38/74/84 67/103/84 95/131/85
s 0
f 38/74/86 36/72/86 66/102/86 67/103/86
f 46/82/80 45/81/80 41/77/80 40/76/80
s 1
f 47/83/77 88/124/87 89/125/88 39/75/77
s 0
f 48/84/81 47/83/81 39/75/81 42/78/81
f 49/85/86 48/84/86 42/78/86 44/80/86
s 1
f 92/128/85 49/85/84 44/80/84 91/127/89
s 0
f 45/81/82 50/86/82 43/79/82 41/77/82
f 52/88/80 51/87/80 45/81/80 46/82/80
s 1
f 70/106/90 86/122/91 87/123/92 72/108/90
s 0
f 54/90/81 53/89/81 47/83/81 48/84/81
f 55/91/86 54/90/86 48/84/86 49/85/86
s 1
f 93/129/85 55/91/84 49/85/84 92/128/85
s 0
f 51/87/82 56/92/82 50/86/82 45/81/82
f 58/94/80 57/93/80 51/87/80 52/88/80
s 1
f 59/95/77 84/120/93 85/121/94 53/89/77
s 0
f 60/96/81 59/95/81 53/89/81 54/90/81
f 61/97/86 60/96/86 54/90/86 55/91/86
s 1
f 94/130/85 61/97/84 55/91/84 93/129/85
s 0
f 57/93/82 62/98/82 56/92/82 51/87/82
f 64/100/80 63/99/80 57/93/80 58/94/80
s 1
f 74/110/90 82/118/95 83/119/96 76/112/90
s 0
f 66/102/81 65/101/81 59/95/81 60/96/81
f 67/103/86 66/102/86 60/96/86 61/97/86
s 1
f 95/131/85 67/103/84 61/97/84 94/130/85
s 0
f 63/99/82 68/104/82 62/98/82 57/93/82
s 1
f 53/89/97 85/121/98 86/122/99 70/106/97
s 0
f 52/88/100 46/82/100 71/107/100 69/105/100
s 1
f 88/124/101 47/83/102 72/108/102 87/123/103
s 0
f 47/83/104 53/89/104 70/106/104 72/108/104
s 1
f 65/101/105 81/117/98 82/118/106 74/110/105
s 0
f 64/100/100 58/94/100 75/111/100 73/109/100
s 1
f 84/120/107 59/95/108 76/112/108 83/119/109
s 0
f 59/95/104 65/101/104 74/110/104 76/112/104
s 1
f 77/113/8 6/10/110 26/58/110 78/114/9
f 79/115/56 78/114/55 26/58/111 8/14/111
f 80/116/65 79/115/64 8/14/112 34/70/112
f 81/117/79 80/116/78 34/70/113 64/100/113
f 82/118/106 81/117/98 64/100/114 73/109/114
f 83/119/96 82/118/95 73/109/115 75/111/115
f 58/94/116 84/120/107 83/119/109 75/111/116
f 85/121/94 84/120/93 58/94/113 52/88/113
f 86/122/99 85/121/98 52/88/117 69/105/117
f 87/123/92 86/122/91 69/105/115 71/107/115
f 46/82/118 88/124/101 87/123/103 71/107/118
f 89/125/88 88/124/87 46/82/113 40/76/113
f 90/126/12 89/125/11 40/76/119 41/77/119
f 91/127/50 90/126/49 41/77/120 43/79/120
f 50/86/121 92/128/85 91/127/89 43/79/121
f 56/92/121 93/129/85 92/128/85 50/86/121
f 62/98/121 94/130/85 93/129/85 56/92/121
f 68/104/121 95/131/85 94/130/85 62/98/121
f 37/73/121 96/132/83 95/131/85 68/104/121
f 2/3/122 97/133/73 96/132/75 37/73/122
f 98/135/3 97/134/2 2/4/123 30/65/123
f 99/136/61 98/135/60 30/65/124 4/6/124
f 100/137/6 99/136/5 4/6/125 17/40/125
f 77/113/43 100/137/42 17/40/126 6/10/126
f 102/139/28 101/138/27 21/48/127 9/16/128
f 9/17/128 25/56/129 103/141/30 102/140/28
f 104/142/31 103/141/30 25/56/129 11/22/130
f 20/46/131 105/144/39 104/143/31 11/23/130
f 106/145/40 105/144/39 20/46/131 12/25/132
f 12/26/132 29/64/133 107/147/34 106/146/40
f 108/148/35 107/147/34 29/64/133 10/19/134
f 21/48/127 101/138/27 108/149/35 10/20/135
