# Blender 3.4.1
# www.blender.org
mtllib treasure_chest.mtl
o TREASURE_CHEST
v -0.774382 0.000000 -0.480865
v -0.774382 -0.000000 0.480865
v -0.774382 1.016869 0.390045
v -0.774382 1.016869 -0.390045
v 0.774382 1.149148 0.078235
v 0.774382 1.107705 0.240432
v -0.774382 1.107705 -0.240432
v -0.774382 0.855481 0.480865
v -0.774382 0.855481 -0.480865
v -0.774382 1.149148 -0.078235
v 0.774382 0.000000 -0.480865
v 0.774382 -0.000000 0.480865
v 0.774382 1.016869 0.390045
v 0.774382 1.016869 -0.390045
v -0.774382 1.149148 0.078235
v -0.774382 1.107705 0.240432
v 0.774382 1.107705 -0.240432
v 0.774382 0.855481 0.480865
v 0.774382 0.855481 -0.480865
v 0.774382 1.149148 -0.078235
v -0.387036 0.000000 -0.480865
v -0.387036 -0.000000 0.480865
v -0.387036 1.016869 0.390045
v -0.387036 1.016869 -0.390045
v 0.387036 1.149148 0.078235
v 0.387036 1.107705 0.240432
v -0.387036 1.107705 -0.240432
v -0.387036 0.855481 0.480865
v -0.387036 0.855481 -0.480865
v -0.387036 1.149148 -0.078235
v 0.387036 0.000000 -0.480865
v 0.387036 -0.000000 0.480865
v 0.387036 1.016869 0.390045
v 0.387036 1.016869 -0.390045
v -0.387036 1.149148 0.078235
v -0.387036 1.107705 0.240432
v 0.387036 1.107705 -0.240432
v 0.387036 0.855481 0.480865
v 0.387036 0.855481 -0.480865
v 0.387036 1.149148 -0.078235
v -0.263445 0.000000 -0.480865
v -0.263445 -0.000000 0.480865
v -0.263445 1.016869 0.390045
v -0.263445 1.016869 -0.390045
v 0.263445 1.149148 0.078235
v 0.263445 1.107705 0.240432
v -0.263445 1.107705 -0.240432
v -0.263445 0.855481 0.480865
v -0.263445 0.855481 -0.480865
v -0.263445 1.149148 -0.078235
v 0.263445 0.000000 -0.480865
v 0.263445 -0.000000 0.480865
v 0.263445 1.016869 0.390045
v 0.263445 1.016869 -0.390045
v -0.263445 1.149148 0.078235
v -0.263445 1.107705 0.240432
v 0.263445 1.107705 -0.240432
v 0.263445 0.855481 0.480865
v 0.263445 0.855481 -0.480865
v 0.263445 1.149148 -0.078235
v -0.387036 1.118095 0.244799
v -0.387036 1.024706 0.398145
v -0.387036 0.858337 0.491767
v -0.387036 -0.000000 0.492135
v -0.263445 -0.000000 0.492135
v -0.263445 0.858337 0.491767
v -0.263445 1.024706 0.398145
v -0.263445 1.118095 0.244799
v -0.263445 1.160330 0.079641
v -0.263445 1.160330 -0.079641
v -0.263445 1.118095 -0.244799
v -0.263445 1.024706 -0.398145
v -0.263445 0.858337 -0.491767
v -0.263445 0.000000 -0.492135
v -0.387036 0.000000 -0.492135
v -0.387036 0.858337 -0.491767
v -0.387036 1.024706 -0.398145
v -0.387036 1.118095 -0.244799
v -0.387036 1.160330 -0.079641
v -0.387036 1.160330 0.079641
v 0.387036 0.858337 -0.491767
v 0.387036 0.000000 -0.492135
v 0.263445 0.000000 -0.492135
v 0.263445 0.858337 -0.491767
v 0.263445 1.024706 -0.398145
v 0.263445 1.118095 -0.244799
v 0.263445 1.160330 -0.079641
v 0.263445 1.160330 0.079641
v 0.263445 1.118095 0.244799
v 0.263445 1.024706 0.398145
v 0.263445 0.858337 0.491767
v 0.263445 -0.000000 0.492135
v 0.387036 -0.000000 0.492135
v 0.387036 0.858337 0.491767
v 0.387036 1.024706 0.398145
v 0.387036 1.118095 0.244799
v 0.387036 1.160330 0.079641
v 0.387036 1.160330 -0.079641
v 0.387036 1.118095 -0.244799
v 0.387036 1.024706 -0.398145
v -0.774382 0.000000 -0.506786
v -0.961729 0.000000 -0.506786
v -0.961729 0.840891 -0.425350
v -0.961729 0.977066 -0.348719
v -0.961729 1.056512 -0.218760
v -0.961729 1.094257 -0.071315
v -0.961729 1.094257 0.071315
v -0.961729 1.056512 0.218759
v -0.961729 0.977066 0.348719
v -0.961729 0.840891 0.425350
v -0.774382 -0.000000 0.506786
v -0.774382 0.862051 0.505939
v -0.774382 1.034893 0.408674
v -0.774382 1.131602 0.250477
v -0.774382 1.174867 0.081469
v -0.774382 1.174867 -0.081469
v -0.774382 1.131602 -0.250477
v -0.774382 1.034893 -0.408675
v -0.774382 0.862051 -0.505939
v 0.774382 -0.000000 0.506786
v 0.961729 -0.000000 0.506786
v 0.961729 0.840891 0.425350
v 0.961729 0.977066 0.348719
v 0.961729 1.056512 0.218759
v 0.961729 1.094257 0.071315
v 0.961729 1.094257 -0.071315
v 0.961729 1.056512 -0.218760
v 0.961729 0.977066 -0.348719
v 0.961729 0.840891 -0.425350
v 0.774382 0.000000 -0.506786
v 0.774382 0.862051 -0.505939
v 0.774382 1.034893 -0.408675
v 0.774382 1.131602 -0.250477
v 0.774382 1.174867 -0.081469
v 0.774382 1.174867 0.081469
v 0.774382 1.131602 0.250477
v 0.774382 1.034893 0.408674
v 0.774382 0.862051 0.505939
v -0.961729 0.000096 -0.426097
v -0.961729 0.862051 -0.505939
v -0.961729 1.034893 -0.408675
v -0.961729 1.131602 -0.250477
v -0.961729 1.174867 -0.081469
v -0.961729 1.174867 0.081469
v -0.961729 1.131602 0.250477
v -0.961729 1.034893 0.408674
v -0.961729 0.862051 0.505939
v -0.961729 -0.000000 0.506786
v 0.961729 0.000096 0.426097
v 0.961729 0.862051 0.505939
v 0.961729 1.034893 0.408674
v 0.961729 1.131602 0.250477
v 0.961729 1.174867 0.081469
v 0.961729 1.174867 -0.081469
v 0.961729 1.131602 -0.250477
v 0.961729 1.034893 -0.408675
v 0.961729 0.862051 -0.505939
v 0.961729 0.000000 -0.506786
v -0.961729 0.000096 0.426097
v 0.961729 0.000096 -0.426097
v 0.104977 0.735752 -0.478512
v 0.089038 0.676265 -0.478512
v 0.045490 0.632717 -0.478512
v -0.013997 0.616777 -0.478512
v -0.073484 0.632717 -0.478512
v -0.117032 0.676265 -0.478512
v -0.132971 0.735752 -0.478512
v -0.117032 0.795239 -0.478512
v -0.073484 0.838787 -0.478512
v -0.013997 0.854726 -0.478512
v 0.045490 0.838787 -0.478512
v 0.089038 0.795239 -0.478512
v 0.104977 0.735752 -0.494456
v 0.089038 0.676265 -0.494456
v 0.045490 0.632717 -0.494456
v -0.013997 0.616777 -0.494456
v -0.073484 0.632717 -0.494456
v -0.117032 0.676265 -0.494456
v -0.132971 0.735752 -0.494456
v -0.117032 0.795239 -0.494456
v -0.073484 0.838787 -0.494456
v -0.013997 0.854726 -0.494456
v 0.045490 0.838787 -0.494456
v 0.089038 0.795239 -0.494456
vn -0.0000 0.6942 0.7198
vn -0.0000 0.9212 0.3891
vn -0.0000 0.0010 1.0000
vn -0.0000 0.2540 0.9672
vn -0.0000 0.0010 -1.0000
vn -0.0000 0.2540 -0.9672
vn -0.0000 0.9212 -0.3891
vn -0.0000 0.9922 -0.1250
vn -0.0000 0.9922 0.1250
vn -0.0000 0.6942 -0.7198
vn 0.0001 0.6942 -0.7198
vn -0.0000 0.6942 -0.7197
vn -0.0000 0.6953 0.7187
vn -0.0000 0.9219 0.3875
vn -0.0000 -0.0000 1.0000
vn -0.0000 0.2535 0.9673
vn -0.0000 -0.0000 -1.0000
vn -0.0000 0.2535 -0.9673
vn -0.0000 0.9219 -0.3875
vn -0.0000 0.9922 -0.1248
vn -0.0000 0.9922 0.1248
vn -0.0000 0.6953 -0.7187
vn -0.0000 0.9922 -0.1247
vn -0.0000 0.9922 0.1247
vn -0.0000 0.6948 0.7192
vn -0.0000 0.9216 0.3882
vn -0.0000 0.0004 1.0000
vn -0.0000 0.2537 0.9673
vn -0.0000 0.0004 -1.0000
vn -0.0000 0.2537 -0.9673
vn -0.0000 0.9216 -0.3882
vn -0.0000 0.9922 -0.1249
vn -0.0000 0.9922 0.1249
vn -0.0000 0.6948 -0.7192
vn -0.0001 0.2537 0.9673
vn 0.0001 0.2537 -0.9673
vn -1.0000 -0.0000 -0.0000
vn 1.0000 -0.0000 -0.0000
vn 0.0001 -1.0000 0.0009
vn 0.0005 -1.0000 -0.0001
vn -0.0000 -1.0000 -0.0001
vn -0.0000 -1.0000 -0.0000
vn 0.0001 -1.0000 -0.0000
vn -0.0001 -1.0000 -0.0009
vn -0.0000 -1.0000 -0.0018
vn -0.0001 -1.0000 -0.0000
vn -0.0005 -1.0000 0.0001
vn -0.0000 -1.0000 0.0001
vn -0.0000 -1.0000 0.0018
vn 0.8660 -0.5000 -0.0000
vn 0.5000 -0.8660 -0.0000
vn -0.5000 -0.8660 -0.0000
vn -0.5000 -0.8660 0.0001
vn -0.8660 -0.5000 -0.0000
vn -0.8660 -0.5000 -0.0001
vn -0.8660 0.5000 -0.0000
vn -0.5000 0.8660 -0.0000
vn -0.5000 0.8660 0.0001
vn -0.0000 1.0000 -0.0000
vn -0.0000 1.0000 -0.0001
vn 0.5000 0.8660 -0.0000
vn 0.8660 0.5000 -0.0000
vt 1.069870 0.001066
vt 1.621729 0.000987
vt 1.621728 0.490580
vt 1.069866 0.490808
vt 1.621724 0.667927
vt 1.069868 0.655496
vt 1.069868 0.574994
vt 1.069866 0.573676
vt 1.621728 0.399439
vt 1.069867 0.401480
vt 1.069865 0.592944
vt 1.069865 0.653321
vt 1.621731 0.001075
vt 1.069869 0.000982
vt 1.069868 0.490575
vt 1.621726 0.490817
vt 1.621728 0.655501
vt 1.069864 0.667918
vt 1.621728 0.574999
vt 1.621725 0.573686
vt 1.069868 0.399434
vt 1.621727 0.401489
vt 1.621725 0.653330
vt 1.621725 0.592953
vt 1.207891 0.001068
vt 1.483709 0.000985
vt 1.483708 0.490579
vt 1.207886 0.490810
vt 1.207888 0.655497
vt 1.483704 0.667924
vt 1.207888 0.574995
vt 1.207886 0.573679
vt 1.483708 0.399438
vt 1.207887 0.401482
vt 1.207885 0.653323
vt 1.207885 0.592946
vt 1.483710 0.001073
vt 1.207889 0.000983
vt 1.207888 0.490576
vt 1.483706 0.490815
vt 1.207884 0.667920
vt 1.483708 0.655500
vt 1.483708 0.574998
vt 1.483705 0.573683
vt 1.207889 0.399435
vt 1.483707 0.401487
vt 1.483705 0.592951
vt 1.483705 0.653327
vt 1.251929 0.001069
vt 1.439670 0.000985
vt 1.439670 0.490579
vt 1.251925 0.490811
vt 1.439666 0.667924
vt 1.251927 0.655498
vt 1.251927 0.574995
vt 1.251924 0.573679
vt 1.439670 0.399437
vt 1.251926 0.401483
vt 1.251923 0.592947
vt 1.251923 0.653323
vt 1.439672 0.001072
vt 1.251927 0.000983
vt 1.251927 0.490577
vt 1.439668 0.490814
vt 1.439669 0.655500
vt 1.251923 0.667920
vt 1.439669 0.574997
vt 1.439667 0.573683
vt 1.251927 0.399436
vt 1.439669 0.401486
vt 1.439666 0.653327
vt 1.439666 0.592950
vt 0.415498 0.687212
vt 0.354454 0.687211
vt 0.288549 0.687211
vt 0.000424 0.687210
vt 0.000424 0.780389
vt 0.288549 0.780390
vt 0.354454 0.780390
vt 0.415498 0.780390
vt 0.473710 0.780391
vt 0.527923 0.780392
vt 0.585515 0.780394
vt 0.645438 0.780394
vt 0.710032 0.780396
vt 0.999575 0.780404
vt 0.999576 0.687225
vt 0.710032 0.687218
vt 0.645438 0.687216
vt 0.585515 0.687215
vt 0.527924 0.687213
vt 0.473710 0.687212
vt 0.710040 0.780456
vt 0.999567 0.780463
vt 0.999568 0.687500
vt 0.710041 0.687493
vt 0.645451 0.687491
vt 0.585531 0.687490
vt 0.527943 0.687488
vt 0.473732 0.687487
vt 0.415523 0.687486
vt 0.354483 0.687486
vt 0.288581 0.687486
vt 0.000473 0.687485
vt 0.000473 0.780448
vt 0.288581 0.780449
vt 0.354483 0.780450
vt 0.415523 0.780450
vt 0.473732 0.780450
vt 0.527942 0.780451
vt 0.585530 0.780452
vt 0.645450 0.780454
vt -0.999132 0.810730
vt -0.999134 0.998381
vt 0.164586 -0.005372
vt -0.419862 0.808129
vt 0.079271 0.043647
vt -0.290634 0.808132
vt 0.029498 0.126780
vt -0.170749 0.808135
vt 0.005850 0.221097
vt -0.055530 0.808139
vt 0.005850 0.312335
vt 0.052933 0.808140
vt 0.029498 0.406652
vt 0.169394 0.808141
vt 0.079271 0.489784
vt 0.291521 0.808143
vt 0.164586 0.538804
vt 0.423373 0.808144
vt 0.999808 0.810764
vt 0.423375 0.810758
vt 0.291523 0.810757
vt 0.169396 0.810756
vt 0.052934 0.810755
vt -0.055528 0.810753
vt -0.170747 0.810749
vt -0.290632 0.810747
vt -0.419860 0.810744
vt -0.999039 0.810843
vt -0.999040 0.998824
vt 0.164587 0.538804
vt -0.422592 0.808563
vt 0.079272 0.489784
vt -0.290736 0.808564
vt 0.029498 0.406652
vt -0.168606 0.808565
vt 0.005850 0.312335
vt -0.052142 0.808567
vt 0.005850 0.221097
vt 0.056323 0.808570
vt 0.029498 0.126780
vt 0.171546 0.808572
vt 0.079272 0.043647
vt 0.291433 0.808575
vt 0.164587 -0.005372
vt 0.420665 0.808579
vt 0.999955 0.810878
vt 0.420667 0.810864
vt 0.291435 0.810860
vt 0.171548 0.810857
vt 0.056325 0.810855
vt -0.052140 0.810852
vt -0.168605 0.810851
vt -0.290735 0.810850
vt -0.422590 0.810848
vt 0.691354 -0.005850
vt -0.999134 0.808115
vt -0.419862 0.998395
vt -0.290634 0.998398
vt -0.170749 0.998401
vt -0.055530 0.998405
vt 0.052933 0.998406
vt 0.169394 0.998407
vt 0.291521 0.998409
vt 0.423373 0.998410
vt 0.999807 0.998416
vt 0.691354 0.539281
vt -0.999040 0.808557
vt -0.422592 0.998829
vt -0.290736 0.998831
vt -0.168606 0.998832
vt -0.052142 0.998833
vt 0.056323 0.998836
vt 0.171546 0.998838
vt 0.291433 0.998841
vt 0.420665 0.998845
vt 0.999952 0.998858
vt 0.691354 0.539281
vt 0.999807 0.808150
vt 0.691354 -0.005850
vt 0.999952 0.808592
vt 0.830916 0.334934
vt 0.830916 0.345011
vt 0.830916 0.355088
vt 0.830916 0.365165
vt 0.830916 0.244243
vt 0.830916 0.254319
vt 0.830916 0.264396
vt 0.830916 0.274473
vt 0.830916 0.284550
vt 0.830916 0.294627
vt 0.830916 0.304704
vt 0.830916 0.314781
vt 0.830916 0.324857
vt 0.809822 0.334934
vt 0.714713 0.268061
vt 0.809822 0.345011
vt 0.728829 0.164742
vt 0.809822 0.355088
vt 0.767396 0.089108
vt 0.809822 0.365165
vt 0.809822 0.244243
vt 0.820079 0.061423
vt 0.809822 0.254319
vt 0.872762 0.089108
vt 0.809822 0.264396
vt 0.911328 0.164742
vt 0.809822 0.274473
vt 0.925445 0.268061
vt 0.809822 0.284550
vt 0.911328 0.371380
vt 0.809822 0.294627
vt 0.872762 0.447014
vt 0.809822 0.304704
vt 0.820079 0.474699
vt 0.809822 0.314781
vt 0.767396 0.447014
vt 0.809822 0.324857
vt 0.728829 0.371380
s 0
usemtl treasure_chest
f 113/133/1 114/134/2 145/174/2 146/175/1
f 111/131/3 112/132/4 147/176/4 148/177/3
f 130/158/5 131/159/6 157/187/6 158/188/5
f 155/185/7 133/161/7 134/162/8 154/184/8
f 153/183/9 135/163/9 136/164/2 152/182/2
f 156/186/10 132/160/11 133/161/7 155/185/7
f 147/176/4 112/132/4 113/133/1 146/175/1
f 157/187/6 131/159/6 132/160/12 156/186/12
f 154/184/8 134/162/8 135/163/9 153/183/9
f 151/181/1 152/182/2 136/164/2 137/165/1
f 121/141/3 150/180/4 138/166/4 120/140/3
f 102/114/5 140/169/6 119/139/6 101/113/5
f 142/171/7 143/172/8 116/136/8 117/137/7
f 144/173/9 145/174/2 114/134/2 115/135/9
f 141/170/11 142/171/7 117/137/7 118/138/10
f 150/180/4 151/181/1 137/165/1 138/166/4
f 140/169/6 141/170/12 118/138/12 119/139/6
f 143/172/8 144/173/9 115/135/9 116/136/8
f 23/27/13 36/43/14 16/19/14 3/3/13
f 22/26/15 28/33/16 8/9/16 2/2/15
f 31/37/17 39/46/18 19/22/18 11/13/17
f 37/44/19 40/48/20 20/23/20 17/20/19
f 25/29/21 26/31/14 6/7/14 5/6/21
f 34/40/22 37/44/19 17/20/19 14/16/22
f 28/33/16 23/27/13 3/3/13 8/9/16
f 39/46/18 34/40/22 14/16/22 19/22/18
f 40/47/23 25/30/24 5/5/24 20/24/23
f 13/15/13 6/7/14 26/31/14 33/39/13
f 12/14/15 18/21/16 38/45/16 32/38/15
f 1/1/17 9/10/18 29/34/18 21/25/17
f 7/8/19 10/12/20 30/35/20 27/32/19
f 15/17/21 16/19/14 36/43/14 35/42/21
f 4/4/22 7/8/19 27/32/19 24/28/22
f 18/21/16 13/15/13 33/39/13 38/45/16
f 9/10/18 4/4/22 24/28/22 29/34/18
f 10/11/23 15/18/24 35/41/24 30/36/23
f 43/51/13 53/63/13 46/55/14 56/67/14
f 42/50/15 52/62/15 58/69/16 48/57/16
f 51/61/17 41/49/17 49/58/18 59/70/18
f 57/68/19 47/56/19 50/60/20 60/71/20
f 45/54/21 55/65/21 56/67/14 46/55/14
f 54/64/22 44/52/22 47/56/19 57/68/19
f 48/57/16 58/69/16 53/63/13 43/51/13
f 59/70/18 49/58/18 44/52/22 54/64/22
f 60/72/23 50/59/23 55/66/24 45/53/24
f 62/74/25 67/79/25 68/80/26 61/73/26
f 64/76/27 65/77/27 66/78/28 63/75/28
f 82/94/29 83/95/29 84/96/30 81/93/30
f 99/111/31 86/98/31 87/99/32 98/110/32
f 97/109/33 88/100/33 89/101/26 96/108/26
f 100/112/34 85/97/34 86/98/31 99/111/31
f 63/75/28 66/78/35 67/79/25 62/74/25
f 81/93/30 84/96/36 85/97/34 100/112/34
f 98/110/20 87/99/20 88/100/21 97/109/21
f 90/102/25 95/107/25 96/108/26 89/101/26
f 92/104/27 93/105/27 94/106/28 91/103/28
f 74/86/29 75/87/29 76/88/30 73/85/30
f 71/83/31 78/90/31 79/91/32 70/82/32
f 69/81/33 80/92/33 61/73/26 68/80/26
f 72/84/34 77/89/34 78/90/31 71/83/31
f 91/103/28 94/106/35 95/107/25 90/102/25
f 73/85/30 76/88/36 77/89/34 72/84/34
f 70/82/20 79/91/20 80/92/21 69/81/21
f 36/43/37 23/27/37 62/74/37 61/73/37
f 23/27/37 28/33/37 63/75/37 62/74/37
f 28/33/37 22/26/37 64/76/37 63/75/37
f 42/50/38 48/57/38 66/78/38 65/77/38
f 48/57/38 43/51/38 67/79/38 66/78/38
f 43/51/38 56/67/38 68/80/38 67/79/38
f 56/67/38 55/65/38 69/81/38 68/80/38
f 55/66/38 50/59/38 70/82/38 69/81/38
f 50/60/38 47/56/38 71/83/38 70/82/38
f 47/56/38 44/52/38 72/84/38 71/83/38
f 44/52/38 49/58/38 73/85/38 72/84/38
f 49/58/38 41/49/38 74/86/38 73/85/38
f 21/25/37 29/34/37 76/88/37 75/87/37
f 29/34/37 24/28/37 77/89/37 76/88/37
f 24/28/37 27/32/37 78/90/37 77/89/37
f 27/32/37 30/35/37 79/91/37 78/90/37
f 30/36/37 35/41/37 80/92/37 79/91/37
f 35/42/37 36/43/37 61/73/37 80/92/37
f 39/46/38 31/37/38 82/94/38 81/93/38
f 51/61/37 59/70/37 84/96/37 83/95/37
f 59/70/37 54/64/37 85/97/37 84/96/37
f 54/64/37 57/68/37 86/98/37 85/97/37
f 57/68/37 60/71/37 87/99/37 86/98/37
f 60/72/37 45/53/37 88/100/37 87/99/37
f 45/54/37 46/55/37 89/101/37 88/100/37
f 46/55/37 53/63/37 90/102/37 89/101/37
f 53/63/37 58/69/37 91/103/37 90/102/37
f 58/69/37 52/62/37 92/104/37 91/103/37
f 32/38/38 38/45/38 94/106/38 93/105/38
f 38/45/38 33/39/38 95/107/38 94/106/38
f 33/39/38 26/31/38 96/108/38 95/107/38
f 26/31/38 25/29/38 97/109/38 96/108/38
f 25/30/38 40/47/38 98/110/38 97/109/38
f 40/48/38 37/44/38 99/111/38 98/110/38
f 37/44/38 34/40/38 100/112/38 99/111/38
f 34/40/38 39/46/38 81/93/38 100/112/38
f 105/119/37 104/117/37 103/115/37 108/125/37
f 103/115/37 139/167/37 159/189/37 108/125/37
f 159/189/37 110/129/37 109/127/37 108/125/37
f 106/121/37 105/119/37 108/125/37 107/123/37
f 2/2/38 8/9/38 112/132/38 111/131/38
f 8/9/38 3/3/38 113/133/38 112/132/38
f 3/3/38 16/19/38 114/134/38 113/133/38
f 16/19/38 15/17/38 115/135/38 114/134/38
f 15/18/38 10/11/38 116/136/38 115/135/38
f 10/12/38 7/8/38 117/137/38 116/136/38
f 7/8/38 4/4/38 118/138/38 117/137/38
f 4/4/38 9/10/38 119/139/38 118/138/38
f 9/10/38 1/1/38 101/113/38 119/139/38
f 124/146/38 123/144/38 122/142/38 127/152/38
f 122/142/38 149/178/38 160/191/38 127/152/38
f 160/191/38 129/156/38 128/154/38 127/152/38
f 125/148/38 124/146/38 127/152/38 126/150/38
f 11/13/37 19/22/37 131/159/37 130/158/37
f 19/22/37 14/16/37 132/160/37 131/159/37
f 14/16/37 17/20/37 133/161/37 132/160/37
f 17/20/37 20/23/37 134/162/37 133/161/37
f 20/24/37 5/5/37 135/163/37 134/162/37
f 5/6/37 6/7/37 136/164/37 135/163/37
f 6/7/37 13/15/37 137/165/37 136/164/37
f 13/15/37 18/21/37 138/166/37 137/165/37
f 18/21/37 12/14/37 120/140/37 138/166/37
f 102/114/37 139/168/37 103/116/37 140/169/37
f 140/169/37 103/116/37 104/118/37 141/170/37
f 141/170/37 104/118/37 105/120/37 142/171/37
f 142/171/37 105/120/37 106/122/37 143/172/37
f 143/172/37 106/122/37 107/124/37 144/173/37
f 144/173/37 107/124/37 108/126/37 145/174/37
f 145/174/37 108/126/37 109/128/37 146/175/37
f 146/175/37 109/128/37 110/130/37 147/176/37
f 147/176/37 110/130/37 159/190/37 148/177/37
f 121/141/38 149/179/38 122/143/38 150/180/38
f 150/180/38 122/143/38 123/145/38 151/181/38
f 151/181/38 123/145/38 124/147/38 152/182/38
f 152/182/38 124/147/38 125/149/38 153/183/38
f 153/183/38 125/149/38 126/151/38 154/184/38
f 154/184/38 126/151/38 127/153/38 155/185/38
f 155/185/38 127/153/38 128/155/38 156/186/38
f 156/186/38 128/155/38 129/157/38 157/187/38
f 157/187/38 129/157/38 160/192/38 158/188/38
f 11/13/39 130/158/39 158/188/39 160/192/39
f 149/179/40 121/141/40 120/140/40 160/192/40
f 160/192/41 120/140/41 12/14/41 32/38/41
f 32/38/42 93/105/42 92/104/42 52/62/42
f 160/192/43 32/38/43 52/62/43 41/49/43
f 42/50/42 65/77/42 64/76/42 22/26/42
f 2/2/44 111/131/44 148/177/44 159/190/44
f 22/26/45 2/2/45 159/190/45 42/50/45
f 52/62/46 42/50/46 159/190/46 41/49/46
f 139/168/47 102/114/47 101/113/47 159/190/47
f 159/190/48 101/113/48 1/1/48 21/25/48
f 21/25/42 75/87/42 74/86/42 41/49/42
f 159/190/48 21/25/48 41/49/48
f 160/192/49 41/49/49 51/61/49 31/37/49
f 51/61/42 83/95/42 82/94/42 31/37/42
f 11/13/49 160/192/49 31/37/49
f 161/193/38 162/194/50 174/208/50 173/206/38
f 162/194/50 163/195/51 175/210/51 174/208/50
f 163/195/51 164/196/42 176/212/42 175/210/51
f 164/197/42 165/198/52 177/215/53 176/213/42
f 165/198/52 166/199/54 178/217/54 177/215/52
f 166/199/55 167/200/37 179/219/37 178/217/54
f 167/200/37 168/201/56 180/221/56 179/219/37
f 168/201/56 169/202/57 181/223/58 180/221/56
f 169/202/57 170/203/59 182/225/59 181/223/57
f 170/203/60 171/204/61 183/227/61 182/225/59
f 171/204/61 172/205/62 184/229/62 183/227/61
f 172/205/62 161/193/38 173/206/38 184/229/62
f 174/209/17 175/211/17 176/214/17 184/230/17
f 176/214/17 177/216/17 178/218/17 180/222/17
f 178/218/17 179/220/17 180/222/17
f 180/222/17 181/224/17 182/226/17 184/230/17
f 182/226/17 183/228/17 184/230/17
f 176/214/17 180/222/17 184/230/17
f 173/207/17 174/209/17 184/230/17
